<?xml version="1.0" encoding="UTF-8"?>
<svg version="1.1" xmlns="http://www.w3.org/2000/svg" width="500" height="500">
<path d="M0 0 C165 0 330 0 500 0 C500 165 500 330 500 500 C335 500 170 500 0 500 C0 335 0 170 0 0 Z " fill="#FEFEFE" transform="translate(0,0)"/>
<path d="M0 0 C4.80323648 1.8942341 8.07929285 7.02262476 11.31640625 10.921875 C12.5890555 12.36584242 13.93631178 13.74411294 15.30859375 15.09375 C17.94140625 17.765625 17.94140625 17.765625 20.38671875 20.84375 C25.32006239 26.98653953 25.32006239 26.98653953 32.23974609 30.28125 C35.58899318 30.55742181 38.82788747 30.59134778 42.17822266 30.31738281 C44.62744241 30.18173999 46.54647984 30.21637751 48.94140625 30.765625 C50.64784241 32.31239319 50.64784241 32.31239319 52.26196289 34.34008789 C55.7143806 38.51493144 59.38599871 42.33955703 63.23046875 46.15234375 C64.22994034 47.14969292 64.22994034 47.14969292 65.24960327 48.16719055 C67.35283795 50.26489259 69.45953755 52.35907356 71.56640625 54.453125 C72.98591087 55.86760396 74.4051836 57.28231568 75.82421875 58.69726562 C78.99783837 61.86099256 82.17406053 65.02208701 85.35133362 68.18214417 C86.79841691 69.62322844 88.2422821 71.06754238 89.68579102 72.51220703 C91.4647341 74.2894172 93.25277003 76.05480865 95.0546875 77.80859375 C96.12113848 78.85672533 97.18754429 79.90490286 98.25390625 80.953125 C98.80369141 81.48615234 99.35347656 82.01917969 99.91992188 82.56835938 C101.29856303 83.92987456 102.62480352 85.34403002 103.94140625 86.765625 C103.94140625 87.425625 103.94140625 88.085625 103.94140625 88.765625 C98.72641169 88.32654865 96.16652327 86.73870469 92.25390625 83.328125 C89.52363906 80.97548813 86.94194791 78.76598611 83.94140625 76.765625 C84.45703125 77.69375 84.97265625 78.621875 85.50390625 79.578125 C86.94140625 82.765625 86.94140625 82.765625 85.94140625 85.765625 C84.2688327 84.3140701 82.60348867 82.85418091 80.94140625 81.390625 C80.01328125 80.57851562 79.08515625 79.76640625 78.12890625 78.9296875 C77.40703125 78.21554688 76.68515625 77.50140625 75.94140625 76.765625 C75.94140625 76.105625 75.94140625 75.445625 75.94140625 74.765625 C74.92046875 74.45625 74.92046875 74.45625 73.87890625 74.140625 C66.75237872 70.8048036 61.42403183 64.31166993 56.00390625 58.7578125 C54.98311965 57.71870409 53.96228584 56.67964205 52.94140625 55.640625 C52.43351563 55.11597656 51.925625 54.59132812 51.40234375 54.05078125 C48.46195262 51.0726928 45.67359312 48.75520991 41.94140625 46.765625 C41.28140625 48.085625 40.62140625 49.405625 39.94140625 50.765625 C35.09845416 49.21882661 31.69515246 46.42578244 27.81640625 43.265625 C26.58535169 42.27515075 25.3536057 41.28553513 24.12109375 40.296875 C23.58210449 39.85923828 23.04311523 39.42160156 22.48779297 38.97070312 C21.02525452 37.83096682 19.48418491 36.79414411 17.94140625 35.765625 C18.30492187 36.23460205 18.6684375 36.7035791 19.04296875 37.18676758 C20.68328172 39.31155119 22.31241065 41.44465441 23.94140625 43.578125 C24.51375 44.31611328 25.08609375 45.05410156 25.67578125 45.81445312 C26.2171875 46.52666016 26.75859375 47.23886719 27.31640625 47.97265625 C27.81914062 48.6272583 28.321875 49.28186035 28.83984375 49.95629883 C29.94140625 51.765625 29.94140625 51.765625 29.94140625 54.765625 C26.75422182 54.882917 23.56760057 54.95323266 20.37890625 55.015625 C19.48365234 55.04914063 18.58839844 55.08265625 17.66601562 55.1171875 C11.51195893 55.20735683 8.00743765 54.29586362 2.94140625 50.765625 C2.94140625 52.745625 2.94140625 54.725625 2.94140625 56.765625 C-2.48085413 52.53626191 -7.2515012 48.17128357 -10.05859375 41.765625 C-10.64135254 36.92242697 -9.70462017 33.72487635 -6.99609375 29.703125 C-6.35671875 29.06375 -5.71734375 28.424375 -5.05859375 27.765625 C-10.00859375 30.240625 -10.00859375 30.240625 -15.05859375 32.765625 C-13.7093183 28.22715302 -11.86700027 24.44630254 -9.43359375 20.390625 C-8.48613281 18.80121094 -8.48613281 18.80121094 -7.51953125 17.1796875 C-7.03742188 16.38304687 -6.5553125 15.58640625 -6.05859375 14.765625 C-15.67798165 21.64184145 -24.89058285 28.90372698 -33.93359375 36.515625 C-34.48128418 36.97557861 -35.02897461 37.43553223 -35.59326172 37.90942383 C-37.9350376 39.89317751 -40.17868172 41.88945273 -42.31640625 44.09375 C-44.05859375 45.765625 -44.05859375 45.765625 -46.05859375 45.765625 C-46.05859375 46.425625 -46.05859375 47.085625 -46.05859375 47.765625 C-47.67316454 49.20143974 -49.3507845 50.56707283 -51.05859375 51.890625 C-51.98671875 52.61507812 -52.91484375 53.33953125 -53.87109375 54.0859375 C-54.59296875 54.64023438 -55.31484375 55.19453125 -56.05859375 55.765625 C-56.71859375 55.105625 -57.37859375 54.445625 -58.05859375 53.765625 C-58.71859375 54.755625 -59.37859375 55.745625 -60.05859375 56.765625 C-60.71859375 56.765625 -61.37859375 56.765625 -62.05859375 56.765625 C-62.38923828 57.57386719 -62.38923828 57.57386719 -62.7265625 58.3984375 C-64.50413525 61.55740843 -66.89349403 64.02812277 -69.37109375 66.640625 C-70.32690441 67.65755552 -71.2813368 68.67578326 -72.234375 69.6953125 C-72.70311035 70.19514648 -73.1718457 70.69498047 -73.65478516 71.20996094 C-75.0984299 72.80977038 -76.4430746 74.46607611 -77.7890625 76.1484375 C-78.53800781 77.01210937 -79.28695312 77.87578125 -80.05859375 78.765625 C-80.71859375 78.765625 -81.37859375 78.765625 -82.05859375 78.765625 C-82.05859375 76.785625 -82.05859375 74.805625 -82.05859375 72.765625 C-89.94096382 79.44871995 -89.94096382 79.44871995 -96.87109375 87.078125 C-100.21650837 89.65887342 -102.91101373 89.04213033 -107.05859375 88.765625 C-105.39782309 84.61873099 -102.39879178 81.69844754 -99.37109375 78.515625 C-98.27527315 77.34707438 -97.18021663 76.17780674 -96.0859375 75.0078125 C-95.29678955 74.16621582 -95.29678955 74.16621582 -94.49169922 73.30761719 C-92.21587648 70.85887845 -90.03266217 68.33412786 -87.84765625 65.8046875 C-84.72266589 62.24301726 -81.5009051 58.76813733 -78.29296875 55.28125 C-76.06845894 52.86395253 -76.06845894 52.86395253 -74.38671875 50.4375 C-73.9484375 49.88578125 -73.51015625 49.3340625 -73.05859375 48.765625 C-72.39859375 48.765625 -71.73859375 48.765625 -71.05859375 48.765625 C-70.83171875 48.229375 -70.60484375 47.693125 -70.37109375 47.140625 C-68.60289286 43.94102339 -66.52189172 41.47525277 -64.05859375 38.765625 C-63.39859375 38.765625 -62.73859375 38.765625 -62.05859375 38.765625 C-61.81109375 38.188125 -61.56359375 37.610625 -61.30859375 37.015625 C-59.89176058 34.4653253 -58.18231838 32.74776799 -56.05859375 30.765625 C-52.06358757 32.1353414 -49.25849883 34.02284922 -46.05859375 36.765625 C-43.44384475 34.74853292 -41.01326067 32.71984381 -38.6875 30.37109375 C-36.28140576 27.98645058 -33.82960965 25.87584329 -31.18359375 23.765625 C-26.48588107 19.97058513 -21.91675875 16.05353313 -17.37109375 12.078125 C-3.06507386 -0.34896477 -3.06507386 -0.34896477 0 0 Z " fill="#464646" transform="translate(246.05859375,135.234375)"/>
<path d="M0 0 C3.23151914 0.42778085 4.93231715 1.54224585 7.25 3.7734375 C8.15455933 4.63255737 8.15455933 4.63255737 9.07739258 5.5090332 C9.71185303 6.12480225 10.34631348 6.74057129 11 7.375 C12.33682773 8.6475682 13.67407328 9.91969763 15.01171875 11.19140625 C16.01211182 12.14877686 16.01211182 12.14877686 17.03271484 13.12548828 C19.9302226 15.88635506 22.86564308 18.60450323 25.8125 21.3125 C27.24529297 22.63701172 27.24529297 22.63701172 28.70703125 23.98828125 C30.82542197 26.01842094 30.82542197 26.01842094 33 27 C33 27.66 33 28.32 33 29 C42.58453367 26.75412984 51.85193862 23.84992183 61.171875 20.69726562 C62.22632813 20.34986328 63.28078125 20.00246094 64.3671875 19.64453125 C65.30675293 19.32846924 66.24631836 19.01240723 67.21435547 18.68676758 C70.29246797 17.92789549 72.84140229 17.73805291 76 18 C78.9921875 20.1171875 78.9921875 20.1171875 81.875 22.875 C82.37257813 23.33519531 82.87015625 23.79539063 83.3828125 24.26953125 C84.63993745 25.46103704 85.82638958 26.72615239 87 28 C87 28.66 87 29.32 87 30 C87.58265625 30.25394531 88.1653125 30.50789063 88.765625 30.76953125 C91.24188033 32.13320333 92.80520626 33.64225203 94.75 35.6875 C97.9247883 38.94399241 101.16698917 41.99435627 104.66156006 44.90422058 C107 47 107 47 109.49127197 49.72090149 C114.65064272 55.24873797 118.58536761 58.65462453 126.42089844 59.34057617 C129.15565124 59.41873409 131.87504101 59.36431713 134.609375 59.29296875 C136.07197452 59.29489558 137.53457484 59.30168366 138.99713135 59.31306458 C142.8058537 59.32989917 146.61093777 59.28170852 150.41906738 59.21887207 C154.3210164 59.16635566 158.22277512 59.17683166 162.125 59.18164062 C169.75116285 59.18193824 177.37458873 59.11338598 185 59 C185 59.99 185 60.98 185 62 C176.2376372 62.11601562 167.47554008 62.20477624 158.71257591 62.25906086 C154.64323104 62.28511926 150.57441286 62.32044705 146.50537109 62.37719727 C142.57607497 62.43165351 138.64728438 62.4614488 134.71763992 62.47438622 C133.22091339 62.4836019 131.72421352 62.50159863 130.22770309 62.52865028 C117.02044587 62.7578262 117.02044587 62.7578262 113.18212891 59.61791992 C112.46202637 58.75400635 111.74192383 57.89009277 111 57 C110.21625 56.21625 109.4325 55.4325 108.625 54.625 C107.75875 53.75875 106.8925 52.8925 106 52 C103.87193426 50.16628354 101.73192438 48.349534 99.57421875 46.55078125 C99.05472656 46.03902344 98.53523437 45.52726562 98 45 C98 44.34 98 43.68 98 43 C97.43796875 42.76667969 96.8759375 42.53335938 96.296875 42.29296875 C93.43265858 40.68062924 91.52747979 38.6806438 89.25 36.3125 C84.50716002 31.49118001 84.50716002 31.49118001 79.625 26.8125 C78.71621094 25.95591797 78.71621094 25.95591797 77.7890625 25.08203125 C76.07873018 23.79884143 76.07873018 23.79884143 74.13623047 24.21191406 C71.47220147 25.19471242 70.05735181 26.54218567 68.03125 28.52734375 C66.92716797 29.59178711 66.92716797 29.59178711 65.80078125 30.67773438 C65.04152344 31.42345703 64.28226563 32.16917969 63.5 32.9375 C61.993751 34.40922547 60.48347708 35.87684553 58.96875 37.33984375 C58.30294922 37.99331787 57.63714844 38.64679199 56.95117188 39.32006836 C55.04666917 40.9598185 53.29074053 41.99157618 51 43 C51 43.99 51 44.98 51 46 C51.86818359 46.39251953 51.86818359 46.39251953 52.75390625 46.79296875 C58.4420874 49.84974784 66.07207276 56.14414551 69 62 C54.39943806 63.37197856 54.39943806 63.37197856 48.92578125 60.2421875 C46.44582069 57.94520676 44.22263551 55.5448157 42 53 C40.6454481 51.78922735 39.27136981 50.59979626 37.875 49.4375 C34.32687989 46.35718477 31.029829 43.07339343 27.76171875 39.69921875 C25.90690694 37.80910864 25.90690694 37.80910864 23 36 C23 35.34 23 34.68 23 34 C22.443125 33.773125 21.88625 33.54625 21.3125 33.3125 C18.35136804 31.63185754 16.38965279 29.42758378 14 27 C12.13893641 25.21452583 10.26379544 23.44361146 8.375 21.6875 C7.43398437 20.80449219 6.49296875 19.92148438 5.5234375 19.01171875 C3.1468996 16.68831718 3.1468996 16.68831718 0 17 C-2.43802877 19.18643108 -2.43802877 19.18643108 -5 22 C-6.95770361 24.05896414 -8.94367011 26.03506255 -11 28 C-11.66 28 -12.32 28 -13 28 C-13 28.66 -13 29.32 -13 30 C-14.22265625 31.234375 -14.22265625 31.234375 -16.0625 32.75 C-20.85641989 36.8227107 -25.43289666 41.10309909 -30.01586914 45.40917969 C-31.23432265 46.55229032 -32.46305371 47.68453428 -33.70127869 48.80619812 C-36.09152772 51.02762852 -36.09152772 51.02762852 -38.44519043 53.74842834 C-42.96119807 58.65235736 -46.87779066 62.47278304 -53.81539154 63.16907406 C-57.45568696 63.30961745 -61.0644076 63.21561794 -64.703125 63.07421875 C-66.27775585 63.05365108 -67.85245806 63.03801726 -69.42718506 63.02705383 C-73.53246295 62.98544714 -77.63332231 62.8777758 -81.73687744 62.75531006 C-85.9398624 62.64190347 -90.14357585 62.59235982 -94.34765625 62.53710938 C-102.56711143 62.41983837 -110.78300319 62.23261894 -119 62 C-119 61.01 -119 60.02 -119 59 C-118.30144394 59.0030162 -117.60288788 59.00603241 -116.88316345 59.00914001 C-110.27742077 59.03144957 -103.67267631 59.02008058 -97.06705379 58.97153378 C-93.67142864 58.94774861 -90.27678179 58.93667258 -86.88110352 58.95532227 C-82.97099028 58.97622661 -79.06234269 58.94062987 -75.15234375 58.90234375 C-73.94166733 58.91659897 -72.73099091 58.93085419 -71.48362732 58.94554138 C-65.83523026 58.84901891 -62.04206437 58.77648986 -57.92089844 54.6574707 C-56.92768046 53.45421577 -55.95114439 52.23678161 -55 51 C-53.72099696 49.84082538 -52.42901558 48.69543326 -51.11328125 47.578125 C-46.68731178 43.75729773 -42.43418837 39.76804937 -38.1875 35.75 C-37.06311523 34.69039062 -37.06311523 34.69039062 -35.91601562 33.609375 C-32.07587941 30.02206466 -32.07587941 30.02206466 -28.3918457 26.27832031 C-27 25 -27 25 -25 25 C-24.505 23.515 -24.505 23.515 -24 22 C-22.2578125 20.2109375 -22.2578125 20.2109375 -20.125 18.375 C-19.07699219 17.45847656 -19.07699219 17.45847656 -18.0078125 16.5234375 C-16 15 -16 15 -13 14 C-12.32096483 12.67292296 -11.65599456 11.33861621 -11 10 C-9.16015625 8.18359375 -9.16015625 8.18359375 -7.0625 6.4375 C-4.12312883 3.98822312 -4.12312883 3.98822312 -1.49609375 1.22265625 C-1.00238281 0.81917969 -0.50867188 0.41570312 0 0 Z " fill="#064BAA" transform="translate(217,170)"/>
<path d="M0 0 C-1.48904175 3.89608498 -3.24378713 7.59097018 -5.125 11.3125 C-5.66382813 12.38113281 -6.20265625 13.44976562 -6.7578125 14.55078125 C-7.16773438 15.35902344 -7.57765625 16.16726562 -8 17 C-7.44570312 16.62746094 -6.89140625 16.25492188 -6.3203125 15.87109375 C-5.59585938 15.39800781 -4.87140625 14.92492187 -4.125 14.4375 C-3.40570313 13.96183594 -2.68640625 13.48617187 -1.9453125 12.99609375 C-1.30335938 12.66738281 -0.66140625 12.33867187 0 12 C0.99 12.495 0.99 12.495 2 13 C1.360625 13.639375 0.72125 14.27875 0.0625 14.9375 C-2.66892782 18.99325646 -3.84069961 22.10592726 -3 27 C-0.08034465 32.24976491 3.66084606 36.85308706 8 41 C8 39.02 8 37.04 8 35 C9.65515625 35.96679688 9.65515625 35.96679688 11.34375 36.953125 C16.35585113 39.45917556 20.97246711 39.66162375 26.5 39.75 C27.4178125 39.77964844 28.335625 39.80929688 29.28125 39.83984375 C31.52091764 39.90983336 33.75958788 39.96287317 36 40 C34.0429906 35.78442945 31.8616891 32.36677024 28.875 28.8125 C25.10638298 24.31914894 25.10638298 24.31914894 24 21 C27.92732844 22.69960179 31.1093036 25.30156845 34.4375 27.9375 C38.15983144 30.88024074 41.86137773 33.65607 46 36 C46.66 34.35 47.32 32.7 48 31 C53.53213514 34.84385411 58.25426874 39.12020312 62.9453125 43.94921875 C65.0831581 46.1595382 65.0831581 46.1595382 68.0625 48.4375 C68.701875 48.953125 69.34125 49.46875 70 50 C70 50.66 70 51.32 70 52 C70.5775 52.27199219 71.155 52.54398438 71.75 52.82421875 C77.55966739 55.86017341 82.02149159 59.82793907 86 65 C87.93996705 66.75658708 89.95005692 68.36936346 92 70 C92.66 69.67 93.32 69.34 94 69 C94 69.99 94 70.98 94 72 C92.02 72.99 92.02 72.99 90 74 C89.2265625 73.21496094 88.453125 72.42992187 87.65625 71.62109375 C80.96646162 64.86132851 74.16041084 58.42074943 66.8125 52.375 C63.51884212 49.5936889 60.34841892 46.70931928 57.671875 43.31640625 C56.20595991 41.57261165 54.90729368 40.24960621 53 39 C45.28350699 38.63254795 38.12045574 41.82078802 30.91650391 44.3359375 C27.93600852 45.36866966 24.94172364 46.35114843 21.9375 47.3125 C20.43509766 47.80169922 20.43509766 47.80169922 18.90234375 48.30078125 C15.83485209 49.03978664 13.1433448 49.12610744 10 49 C10 48.34 10 47.68 10 47 C9.46375 46.773125 8.9275 46.54625 8.375 46.3125 C5.17539839 44.54429911 2.70962777 42.46329797 0 40 C0 39.34 0 38.68 0 38 C-0.57105469 37.75765625 -1.14210938 37.5153125 -1.73046875 37.265625 C-4.42354348 35.76380708 -6.18139624 33.97573537 -8.3125 31.75 C-13.88360895 26.06766023 -13.88360895 26.06766023 -20 21 C-23.66027714 21.23286057 -25.32200874 23.02644737 -27.75 25.625 C-32.21368899 30.26259895 -36.97344257 34.43810077 -41.8828125 38.59375 C-42.47835937 39.0990625 -43.07390625 39.604375 -43.6875 40.125 C-44.20699219 40.56070313 -44.72648437 40.99640625 -45.26171875 41.4453125 C-48.44727441 44.29441621 -51.39569248 47.3868201 -54.39453125 50.4296875 C-59.42025927 55.51224928 -64.53593415 60.39064836 -70 65 C-71.32 64.34 -72.64 63.68 -74 63 C-73.37351563 62.31292969 -72.74703125 61.62585938 -72.1015625 60.91796875 C-71.28429687 60.01691406 -70.46703125 59.11585938 -69.625 58.1875 C-68.81289062 57.29417969 -68.00078125 56.40085938 -67.1640625 55.48046875 C-64.90927093 53.00367326 -64.90927093 53.00367326 -63 50 C-62.34 50 -61.68 50 -61 50 C-60.731875 49.4225 -60.46375 48.845 -60.1875 48.25 C-58.97070811 45.94449957 -57.69666121 43.97943808 -56 42 C-55.34 42 -54.68 42 -54 42 C-53.34 40.68 -52.68 39.36 -52 38 C-51.34 38.66 -50.68 39.32 -50 40 C-49.44570312 39.4946875 -48.89140625 38.989375 -48.3203125 38.46875 C-47.23363281 37.49421875 -47.23363281 37.49421875 -46.125 36.5 C-45.40570313 35.8503125 -44.68640625 35.200625 -43.9453125 34.53125 C-42 33 -42 33 -40 33 C-40 32.34 -40 31.68 -40 31 C-38.7421875 29.6953125 -38.7421875 29.6953125 -36.875 28.125 C-36.14667969 27.50753906 -35.41835937 26.89007813 -34.66796875 26.25390625 C-33.78753906 25.51011719 -32.90710938 24.76632813 -32 24 C-30.91136688 23.05237978 -29.82421961 22.10305087 -28.73828125 21.15234375 C-22.48911004 15.7018471 -16.1956619 10.49186722 -9.40234375 5.71875 C-7.65865667 4.47123404 -5.96878413 3.14740813 -4.31640625 1.78125 C-2 0 -2 0 0 0 Z " fill="#F1F4F5" transform="translate(240,150)"/>
<path d="M0 0 C5.508583 2.87680529 9.47371449 5.98364348 11.49609375 12.05078125 C12.06669824 18.32743066 11.7922025 23.52182464 8.49609375 29.05078125 C3.81416784 33.84108508 0.5278004 36.19956175 -6.25390625 36.30078125 C-14.56909211 36.16202964 -14.56909211 36.16202964 -18.50390625 33.05078125 C-22.90114896 28.3567921 -25.94339722 23.98300143 -26.25390625 17.42578125 C-25.90962763 12.16430577 -24.14895428 7.90569568 -20.50390625 4.05078125 C-19.84390625 4.05078125 -19.18390625 4.05078125 -18.50390625 4.05078125 C-18.50390625 3.39078125 -18.50390625 2.73078125 -18.50390625 2.05078125 C-12.6221438 -1.66401609 -6.53672542 -2.47804099 0 0 Z " fill="#FAFAFA" transform="translate(146.50390625,267.94921875)"/>
<path d="M0 0 C4.22507066 0.51694982 6.41077818 2.91218592 9.4375 5.75 C10.36433594 6.61109375 11.29117188 7.4721875 12.24609375 8.359375 C14.03320331 10.07297225 15.80272098 11.80517954 17.55078125 13.55859375 C19.88965254 15.89000452 22.28810117 18.11207736 24.75 20.3125 C25.61496094 21.08722656 26.47992188 21.86195313 27.37109375 22.66015625 C29.06877349 24.17116689 30.76911099 25.67919912 32.47265625 27.18359375 C36.43963804 30.68698835 40.25689803 34.25689803 44 38 C46.64113118 40.36311737 49.31441806 42.68760066 52 45 C48.16290601 46.27903133 46.69151452 45.50674062 43 44 C40.625 42.5 40.625 42.5 39 41 C39 40.34 39 39.68 39 39 C38.401875 38.731875 37.80375 38.46375 37.1875 38.1875 C35.01273336 37.00691239 33.73183488 35.73183488 32 34 C30.515 33.505 30.515 33.505 29 33 C27.897992 31.62249 26.79679956 30.24432137 25.69921875 28.86328125 C22.77583533 25.65764013 19.32017558 23.09308865 15.9375 20.390625 C11.47531158 16.75916314 7.23796506 12.88863172 3 9 C-5.62468532 12.83096488 -12.7584627 20.59415691 -19.6640625 26.87890625 C-22.40580464 29.36848147 -25.18901543 31.80595251 -27.98828125 34.23046875 C-29.46131224 35.52616397 -30.91439196 36.84463735 -32.35546875 38.17578125 C-33.14566406 38.90152344 -33.93585938 39.62726563 -34.75 40.375 C-35.46671875 41.04273438 -36.1834375 41.71046875 -36.921875 42.3984375 C-40.53172018 45.18046104 -43.60041975 45 -48 45 C-43.92592708 41.15982715 -39.84956158 37.32212469 -35.76953125 33.48828125 C-32.7169848 30.61927202 -29.67298646 27.7416944 -26.63671875 24.85546875 C-25.29955694 23.59106358 -23.96232091 22.3267369 -22.625 21.0625 C-22.00165771 20.46614746 -21.37831543 19.86979492 -20.73608398 19.25537109 C-16.33948586 15.11316195 -16.33948586 15.11316195 -13 14 C-13 13.34 -13 12.68 -13 12 C-11.390625 10.34375 -11.390625 10.34375 -9.25 8.5 C-8.55390625 7.8915625 -7.8578125 7.283125 -7.140625 6.65625 C-5 5 -5 5 -2.796875 3.96875 C-0.64367081 3.0726576 -0.64367081 3.0726576 0 0 Z " fill="#D7E8F6" transform="translate(217,186)"/>
<path d="M0 0 C16 0 16 0 22 5 C23.76420121 8.52840242 23.05550516 12.28973943 22 16 C20.17931159 18.38384428 18.61822557 19.37670015 16 21 C15.01 21 14.02 21 13 21 C15.77251423 25.2654065 18.72541181 29.3312901 21.828125 33.36328125 C23 35 23 35 23 36 C20.796875 36.36328125 20.796875 36.36328125 18 36 C16.14550085 34.07072266 14.74182718 32.36496492 13.25 30.1875 C12.85167969 29.64029297 12.45335937 29.09308594 12.04296875 28.52929688 C10.26334816 26.04084435 8.97259947 23.91779841 8 21 C6.35 21 4.7 21 3 21 C3 25.95 3 30.9 3 36 C2.01 36 1.02 36 0 36 C0 24.12 0 12.24 0 0 Z " fill="#121212" transform="translate(282,268)"/>
<path d="M0 0 C2.9921875 2.1171875 2.9921875 2.1171875 5.875 4.875 C6.37257813 5.33519531 6.87015625 5.79539063 7.3828125 6.26953125 C8.63993745 7.46103704 9.82638958 8.72615239 11 10 C11 10.66 11 11.32 11 12 C11.58265625 12.25394531 12.1653125 12.50789062 12.765625 12.76953125 C15.24188033 14.13320333 16.80520626 15.64225203 18.75 17.6875 C21.9247883 20.94399241 25.16698917 23.99435627 28.66156006 26.90422058 C31 29 31 29 33.49127197 31.72090149 C38.65064272 37.24873797 42.58536761 40.65462453 50.42089844 41.34057617 C53.15565124 41.41873409 55.87504101 41.36431713 58.609375 41.29296875 C60.07197452 41.29489558 61.53457484 41.30168366 62.99713135 41.31306458 C66.8058537 41.32989917 70.61093777 41.28170852 74.41906738 41.21887207 C78.3210164 41.16635566 82.22277512 41.17683166 86.125 41.18164062 C93.75116285 41.18193824 101.37458873 41.11338598 109 41 C109 41.99 109 42.98 109 44 C100.2376372 44.11601562 91.47554008 44.20477624 82.71257591 44.25906086 C78.64323104 44.28511926 74.57441286 44.32044705 70.50537109 44.37719727 C66.57607497 44.43165351 62.64728438 44.4614488 58.71763992 44.47438622 C57.22091339 44.4836019 55.72421352 44.50159863 54.22770309 44.52865028 C41.02044587 44.7578262 41.02044587 44.7578262 37.18212891 41.61791992 C36.46202637 40.75400635 35.74192383 39.89009277 35 39 C34.21625 38.21625 33.4325 37.4325 32.625 36.625 C31.75875 35.75875 30.8925 34.8925 30 34 C27.87193426 32.16628354 25.73192438 30.349534 23.57421875 28.55078125 C22.79498047 27.78314453 22.79498047 27.78314453 22 27 C22 26.34 22 25.68 22 25 C21.43796875 24.76667969 20.8759375 24.53335938 20.296875 24.29296875 C17.43265858 22.68062924 15.52747979 20.6806438 13.25 18.3125 C8.50716002 13.49118001 8.50716002 13.49118001 3.625 8.8125 C3.01914062 8.24144531 2.41328125 7.67039063 1.7890625 7.08203125 C0.06295726 5.80460759 0.06295726 5.80460759 -1.9921875 6.1328125 C-4.31818337 7.1374255 -5.87266782 8.36568053 -7.75 10.0625 C-8.36359375 10.61035156 -8.9771875 11.15820312 -9.609375 11.72265625 C-10.06828125 12.14417969 -10.5271875 12.56570312 -11 13 C-11 11.68 -11 10.36 -11 9 C-10.01 8.34 -9.02 7.68 -8 7 C-8 6.34 -8 5.68 -8 5 C-10.64 4.67 -13.28 4.34 -16 4 C-11.11250395 0.7416693 -5.85071386 -0.6703184 0 0 Z " fill="#0E499A" transform="translate(293,188)"/>
<path d="M0 0 C0.66 0 1.32 0 2 0 C4.70445836 6.45079822 7.38435875 12.90792504 9.953125 19.4140625 C10.73098953 21.33550399 11.53768404 23.24532568 12.359375 25.1484375 C12.81828125 26.21320313 13.2771875 27.27796875 13.75 28.375 C14.17796875 29.35210937 14.6059375 30.32921875 15.046875 31.3359375 C16 34 16 34 16 38 C14.68 38 13.36 38 12 38 C10.515 33.05 10.515 33.05 9 28 C3.39 28 -2.22 28 -8 28 C-8.33 29.65 -8.66 31.3 -9 33 C-9.63437344 34.6792238 -10.29289322 36.35008418 -11 38 C-12.32 38 -13.64 38 -15 38 C-11.54199236 24.81634586 -5.55082206 12.41022406 0 0 Z " fill="#161616" transform="translate(227,266)"/>
<path d="M0 0 C5.508583 2.87680529 9.47371449 5.98364348 11.49609375 12.05078125 C12.06669824 18.32743066 11.7922025 23.52182464 8.49609375 29.05078125 C3.81416784 33.84108508 0.5278004 36.19956175 -6.25390625 36.30078125 C-14.56909211 36.16202964 -14.56909211 36.16202964 -18.50390625 33.05078125 C-22.90114896 28.3567921 -25.94339722 23.98300143 -26.25390625 17.42578125 C-25.90962763 12.16430577 -24.14895428 7.90569568 -20.50390625 4.05078125 C-19.84390625 4.05078125 -19.18390625 4.05078125 -18.50390625 4.05078125 C-18.50390625 3.39078125 -18.50390625 2.73078125 -18.50390625 2.05078125 C-12.6221438 -1.66401609 -6.53672542 -2.47804099 0 0 Z M-14.50390625 4.05078125 C-14.50390625 4.71078125 -14.50390625 5.37078125 -14.50390625 6.05078125 C-15.40109375 6.14359375 -15.40109375 6.14359375 -16.31640625 6.23828125 C-18.65112745 6.91367178 -18.65112745 6.91367178 -20.25390625 8.98828125 C-22.26706376 13.92051715 -22.58207454 19.08167166 -20.7421875 24.1484375 C-18.87653621 27.62164602 -16.87198624 30.05207634 -13.50390625 32.05078125 C-8.54887074 32.81900381 -3.0474345 33.19325327 1.609375 31.1015625 C5.62527933 27.94265016 7.08201003 24.68089543 7.8515625 19.79296875 C8.17247265 15.83305854 8.14231181 13.10822899 6.03515625 9.66015625 C3.33794192 6.49633523 1.48960204 4.38195068 -2.50390625 3.05078125 C-4.00164643 2.95852914 -5.50333599 2.92077935 -7.00390625 2.92578125 C-7.77734375 2.92320312 -8.55078125 2.920625 -9.34765625 2.91796875 C-11.68837642 2.96932312 -11.68837642 2.96932312 -14.50390625 4.05078125 Z " fill="#252525" transform="translate(146.50390625,267.94921875)"/>
<path d="M0 0 C0.66 0 1.32 0 2 0 C3.44963959 1.90374355 4.81184323 3.87467159 6.125 5.875 C6.84945313 6.96554687 7.57390625 8.05609375 8.3203125 9.1796875 C10 12 10 12 10 14 C10.66 14 11.32 14 12 14 C13.25836598 15.76403729 14.4338265 17.58779499 15.5625 19.4375 C17.53533923 22.90436436 17.53533923 22.90436436 20 26 C20.33 17.75 20.66 9.5 21 1 C22.32 1 23.64 1 25 1 C25 13.54 25 26.08 25 39 C22.525 36.525 22.525 36.525 20 34 C20 33.34 20 32.68 20 32 C19.34 32 18.68 32 18 32 C16.7109375 30.3203125 16.7109375 30.3203125 15.375 28.125 C14.92898438 27.40570313 14.48296875 26.68640625 14.0234375 25.9453125 C13 24 13 24 13 22 C12.34 22 11.68 22 11 22 C9.02 19.03 7.04 16.06 5 13 C4.67 21.25 4.34 29.5 4 38 C2.68 38 1.36 38 0 38 C0 25.46 0 12.92 0 0 Z " fill="#1C1C1C" transform="translate(351,266)"/>
<path d="M0 0 C4.72966976 2.35822919 8.99379647 4.84954672 11.28125 9.73828125 C11.5184375 10.48464844 11.755625 11.23101562 12 12 C9.75 12.3125 9.75 12.3125 7 12 C4.875 9.625 4.875 9.625 3 7 C-0.52679099 4.64880601 -2.02879485 4.78556548 -6.1875 4.875 C-7.81751953 4.90207031 -7.81751953 4.90207031 -9.48046875 4.9296875 C-10.31191406 4.95289063 -11.14335937 4.97609375 -12 5 C-12 5.66 -12 6.32 -12 7 C-12.61875 7.061875 -13.2375 7.12375 -13.875 7.1875 C-16.1533862 7.81862667 -16.1533862 7.81862667 -17.25 9.9375 C-18.68140682 15.78241119 -19.14587785 21.58197467 -16.1875 27 C-14.16082941 30.14230022 -14.16082941 30.14230022 -11 32 C-6.12760314 32.58076557 -1.52394634 32.66672652 3 30.6875 C4.99589807 29.06236525 4.99589807 29.06236525 6.625 27.3125 C8 26 8 26 11 26 C10.23239519 30.50593993 8.08031324 32.68393642 4.65234375 35.56640625 C-0.60275097 38.40678881 -6.23871748 37.86698912 -12 37 C-18.22649668 34.31616523 -20.09093141 29.81813718 -23 24 C-23.81633559 17.07280946 -23.25593099 12.15119755 -19.2890625 6.36328125 C-18.86367187 5.91339844 -18.43828125 5.46351563 -18 5 C-17.34 5 -16.68 5 -16 5 C-16 4.34 -16 3.68 -16 3 C-10.78938977 -0.29091172 -6.00313909 -1.2374892 0 0 Z " fill="#232323" transform="translate(192,267)"/>
<path d="M0 0 C7.26 0 14.52 0 22 0 C22 1.32 22 2.64 22 4 C16.06 4 10.12 4 4 4 C4 8.29 4 12.58 4 17 C9.61 17 15.22 17 21 17 C21 18.32 21 19.64 21 21 C15.39 21 9.78 21 4 21 C4 25.29 4 29.58 4 34 C9.94 34 15.88 34 22 34 C22 34.99 22 35.98 22 37 C14.74 37 7.48 37 0 37 C0 24.79 0 12.58 0 0 Z " fill="#1C1C1C" transform="translate(316,267)"/>
<path d="M0 0 C3.92732844 1.69960179 7.1093036 4.30156845 10.4375 6.9375 C14.15983144 9.88024074 17.86137773 12.65607 22 15 C22.66 13.35 23.32 11.7 24 10 C29.53213514 13.84385411 34.25426874 18.12020312 38.9453125 22.94921875 C41.0831581 25.1595382 41.0831581 25.1595382 44.0625 27.4375 C44.701875 27.953125 45.34125 28.46875 46 29 C46 29.66 46 30.32 46 31 C46.86625 31.40798828 46.86625 31.40798828 47.75 31.82421875 C53.55966739 34.86017341 58.02149159 38.82793907 62 44 C63.93996705 45.75658708 65.95005692 47.36936346 68 49 C68.66 48.67 69.32 48.34 70 48 C70 48.99 70 49.98 70 51 C68.02 51.99 68.02 51.99 66 53 C65.2265625 52.21496094 64.453125 51.42992187 63.65625 50.62109375 C56.96646162 43.86132851 50.16041084 37.42074943 42.8125 31.375 C39.51884212 28.5936889 36.34841892 25.70931928 33.671875 22.31640625 C30.93721582 19.05754626 30.93721582 19.05754626 27.0390625 17.703125 C21.32844366 18.15667596 15.95193282 20.21770914 10.6015625 22.16015625 C8 23 8 23 5 23 C5 22.34 5 21.68 5 21 C8.465 20.505 8.465 20.505 12 20 C9.95151128 14.11059494 6.76418803 9.97827306 2.7421875 5.234375 C1 3 1 3 0 0 Z " fill="#EDF0F2" transform="translate(264,171)"/>
<path d="M0 0 C0.66 0.33 1.32 0.66 2 1 C0.35 2.65 -1.3 4.3 -3 6 C-2.505 6.99 -2.505 6.99 -2 8 C-2.680625 8.350625 -3.36125 8.70125 -4.0625 9.0625 C-7.19509267 11.12867814 -9.51262818 13.42583706 -12.11328125 16.10546875 C-15.82664799 19.83421175 -19.87305229 23.19892005 -23.88671875 26.59765625 C-24.48097656 27.10167969 -25.07523438 27.60570312 -25.6875 28.125 C-26.20699219 28.56070313 -26.72648437 28.99640625 -27.26171875 29.4453125 C-30.44727441 32.29441621 -33.39569248 35.3868201 -36.39453125 38.4296875 C-41.42025927 43.51224928 -46.53593415 48.39064836 -52 53 C-53.32 52.34 -54.64 51.68 -56 51 C-55.37351563 50.31292969 -54.74703125 49.62585938 -54.1015625 48.91796875 C-53.28429687 48.01691406 -52.46703125 47.11585938 -51.625 46.1875 C-50.81289062 45.29417969 -50.00078125 44.40085938 -49.1640625 43.48046875 C-46.90927093 41.00367326 -46.90927093 41.00367326 -45 38 C-44.34 38 -43.68 38 -43 38 C-42.731875 37.4225 -42.46375 36.845 -42.1875 36.25 C-40.97070811 33.94449957 -39.69666121 31.97943808 -38 30 C-37.34 30 -36.68 30 -36 30 C-35.34 28.68 -34.68 27.36 -34 26 C-33.34 26.66 -32.68 27.32 -32 28 C-31.44570312 27.4946875 -30.89140625 26.989375 -30.3203125 26.46875 C-29.59585938 25.8190625 -28.87140625 25.169375 -28.125 24.5 C-27.40570313 23.8503125 -26.68640625 23.200625 -25.9453125 22.53125 C-24 21 -24 21 -22 21 C-22 20.34 -22 19.68 -22 19 C-20.7421875 17.6953125 -20.7421875 17.6953125 -18.875 16.125 C-17.80378906 15.21427734 -17.80378906 15.21427734 -16.7109375 14.28515625 C-15.36902344 13.15400391 -15.36902344 13.15400391 -14 12 C-12.14139471 10.40905458 -10.28582272 8.81460933 -8.43017578 7.22021484 C-5.62339722 4.80963726 -2.81164225 2.40490187 0 0 Z " fill="#E6EBEE" transform="translate(222,162)"/>
<path d="M0 0 C3.3 0 6.6 0 10 0 C10.99 0.99 11.98 1.98 13 3 C12.71269945 5.33944736 12.38063221 7.6739143 12 10 C12.66 10.66 13.32 11.32 14 12 C13.8125 15.5 13.8125 15.5 13 19 C10 21 10 21 0 21 C0 14.07 0 7.14 0 0 Z " fill="#3E3E3E" transform="translate(276,335)"/>
<path d="M0 0 C2.75780993 1.09186337 4.53197167 2.82633784 6.69921875 4.83422852 C7.4984375 5.56770508 8.29765625 6.30118164 9.12109375 7.05688477 C9.724375 7.6227832 10.32765625 8.18868164 10.94921875 8.77172852 C10.61083984 9.65924805 10.61083984 9.65924805 10.265625 10.56469727 C9.69056447 12.80106369 9.69056447 12.80106369 11.1015625 14.44750977 C11.69066406 14.98762695 12.27976562 15.52774414 12.88671875 16.08422852 C13.52609375 16.67977539 14.16546875 17.27532227 14.82421875 17.88891602 C15.87609375 18.8209082 15.87609375 18.8209082 16.94921875 19.77172852 C17.69171875 20.43430664 18.43421875 21.09688477 19.19921875 21.77954102 C21.10318838 23.45911422 23.01909112 25.12234673 24.94921875 26.77172852 C20.59991145 26.77172852 18.72655947 24.07604745 15.76171875 21.20922852 C14.59840035 20.10818139 13.43433889 19.0079188 12.26953125 17.90844727 C11.70395508 17.3713916 11.13837891 16.83433594 10.55566406 16.28100586 C7.43661649 13.350618 4.19667406 10.5580648 0.94921875 7.77172852 C-3.27533488 9.16733998 -5.84276241 11.15659809 -9.05078125 14.20922852 C-12.22756276 17.22220723 -15.24259635 19.60979021 -19.05078125 21.77172852 C-20.20889513 22.82443314 -20.20889513 22.82443314 -21.05078125 24.77172852 C-22.04078125 24.11172852 -23.03078125 23.45172852 -24.05078125 22.77172852 C-24.05078125 19.77172852 -24.05078125 19.77172852 -22.79296875 18.40454102 C-22.17679687 17.90696289 -21.560625 17.40938477 -20.92578125 16.89672852 C-18.02118626 14.49184879 -15.24274242 12.0191303 -12.54296875 9.38891602 C-11.92695801 8.79449707 -11.31094727 8.20007813 -10.67626953 7.58764648 C-9.43399638 6.38483111 -8.20041469 5.17296851 -6.97607422 3.9519043 C-6.39744629 3.39744629 -5.81881836 2.84298828 -5.22265625 2.27172852 C-4.70799805 1.76641602 -4.19333984 1.26110352 -3.66308594 0.74047852 C-2.05078125 -0.22827148 -2.05078125 -0.22827148 0 0 Z " fill="#DFEFF9" transform="translate(292.05078125,193.228271484375)"/>
<path d="M0 0 C2.9921875 2.1171875 2.9921875 2.1171875 5.875 4.875 C6.37257813 5.33519531 6.87015625 5.79539063 7.3828125 6.26953125 C8.63993745 7.46103704 9.82638958 8.72615239 11 10 C11 10.66 11 11.32 11 12 C11.58265625 12.25394531 12.1653125 12.50789062 12.765625 12.76953125 C15.24188033 14.13320333 16.80520626 15.64225203 18.75 17.6875 C22.12109761 21.15960428 25.62911873 24.34832467 29.3359375 27.45703125 C31 29 31 29 33 32 C32.505 32.99 32.505 32.99 32 34 C32.99 34.495 32.99 34.495 34 35 C31 35 31 35 29.24609375 33.50390625 C28.64925781 32.86324219 28.05242187 32.22257812 27.4375 31.5625 C24.99710571 28.9103837 24.99710571 28.9103837 22 27 C22 26.34 22 25.68 22 25 C21.43796875 24.76667969 20.8759375 24.53335938 20.296875 24.29296875 C17.43265858 22.68062924 15.52747979 20.6806438 13.25 18.3125 C8.50716002 13.49118001 8.50716002 13.49118001 3.625 8.8125 C3.01914062 8.24144531 2.41328125 7.67039063 1.7890625 7.08203125 C0.06295726 5.80460759 0.06295726 5.80460759 -1.9921875 6.1328125 C-4.31818337 7.1374255 -5.87266782 8.36568053 -7.75 10.0625 C-8.36359375 10.61035156 -8.9771875 11.15820312 -9.609375 11.72265625 C-10.06828125 12.14417969 -10.5271875 12.56570312 -11 13 C-11 11.68 -11 10.36 -11 9 C-10.01 8.34 -9.02 7.68 -8 7 C-8 6.34 -8 5.68 -8 5 C-10.64 4.67 -13.28 4.34 -16 4 C-11.11250395 0.7416693 -5.85071386 -0.6703184 0 0 Z " fill="#2057A3" transform="translate(293,188)"/>
<path d="M0 0 C7.26 0 14.52 0 22 0 C22 1.32 22 2.64 22 4 C19.03 4 16.06 4 13 4 C13 14.89 13 25.78 13 37 C11.68 37 10.36 37 9 37 C9 26.11 9 15.22 9 4 C6.03 4 3.06 4 0 4 C0 2.68 0 1.36 0 0 Z " fill="#050505" transform="translate(386,267)"/>
<path d="M0 0 C10.625 -0.125 10.625 -0.125 14 1 C16.34168764 4.51253146 16.49623677 5.86469356 16 10 C14.75 12.875 14.75 12.875 12 15 C7.90667871 15.43001647 4.13634224 15.22480121 0 15 C0 10.05 0 5.1 0 0 Z " fill="#F2F2F2" transform="translate(285,271)"/>
<path d="M0 0 C0.99 0.33 1.98 0.66 3 1 C3 2.65 3 4.3 3 6 C3.99 6 4.98 6 6 6 C6.33 8.64 6.66 11.28 7 14 C6.34 14 5.68 14 5 14 C5 12.02 5 10.04 5 8 C-2.88237007 14.68309495 -2.88237007 14.68309495 -9.8125 22.3125 C-13.15791462 24.89324842 -15.85241998 24.27650533 -20 24 C-18.33433323 19.82567656 -15.29621163 16.88842371 -12.25 13.6875 C-11.16574357 12.53211557 -10.0824011 11.37587274 -9 10.21875 C-8.48179687 9.66574219 -7.96359375 9.11273438 -7.4296875 8.54296875 C-4.86112908 5.77089067 -2.42547386 2.89709378 0 0 Z " fill="#4C4C4C" transform="translate(159,200)"/>
<path d="M0 0 C0.99 0.33 1.98 0.66 3 1 C2.01 1.99 1.02 2.98 0 4 C5.445 4.495 5.445 4.495 11 5 C11 4.01 11 3.02 11 2 C11.99 2 12.98 2 14 2 C13.34 3.32 12.68 4.64 12 6 C-11.43 6 -34.86 6 -59 6 C-59 5.01 -59 4.02 -59 3 C-58.29034088 2.99191315 -57.58068176 2.98382629 -56.84951782 2.97549438 C-50.16885663 2.89762497 -43.4883925 2.81035789 -36.80799294 2.71247292 C-33.37333864 2.66247962 -29.93871555 2.61615022 -26.50390625 2.578125 C-22.55711312 2.5342726 -18.61063634 2.47460852 -14.6640625 2.4140625 C-13.42757965 2.40251129 -12.1910968 2.39096008 -10.91714478 2.37905884 C-9.77611298 2.35918915 -8.63508118 2.33931946 -7.45947266 2.31884766 C-5.94723618 2.29886215 -5.94723618 2.29886215 -4.40444946 2.2784729 C-1.81698676 2.23102768 -1.81698676 2.23102768 0 0 Z " fill="#08489E" transform="translate(157,226)"/>
<path d="M0 0 C1.32 0 2.64 0 4 0 C4 10.89 4 21.78 4 33 C8.29 33 12.58 33 17 33 C17 34.32 17 35.64 17 37 C11.39 37 5.78 37 0 37 C0 24.79 0 12.58 0 0 Z " fill="#181818" transform="translate(95,267)"/>
<path d="M0 0 C4.18374334 3.5085571 8.18564713 7.08526942 12 11 C13.66543801 12.66789441 15.33194848 14.33471933 17 16 C2.35576282 17.37608261 2.35576282 17.37608261 -3.25 14.1015625 C-5.69945188 11.84894157 -7.87261642 9.55550849 -10 7 C-10.99005048 5.99014851 -11.98575042 4.98554441 -13 4 C-10.525 4.495 -10.525 4.495 -8 5 C-8 5.66 -8 6.32 -8 7 C-6.68 7 -5.36 7 -4 7 C-3.67 5.68 -3.34 4.36 -3 3 C-1.35 3.99 0.3 4.98 2 6 C1.34 4.02 0.68 2.04 0 0 Z " fill="#1451A7" transform="translate(269,216)"/>
<path d="M0 0 C1.32 0 2.64 0 4 0 C4 10.56 4 21.12 4 32 C8.29 32 12.58 32 17 32 C17 33.32 17 34.64 17 36 C11.39 36 5.78 36 0 36 C0 24.12 0 12.24 0 0 Z " fill="#1F1F1F" transform="translate(254,268)"/>
<path d="M0 0 C0.66 0 1.32 0 2 0 C3.44963959 1.90374355 4.81184323 3.87467159 6.125 5.875 C6.84945313 6.96554687 7.57390625 8.05609375 8.3203125 9.1796875 C10 12 10 12 10 14 C10.66 14 11.32 14 12 14 C11.67 14.66 11.34 15.32 11 16 C6.125 14.125 6.125 14.125 5 13 C4.67 21.25 4.34 29.5 4 38 C2.68 38 1.36 38 0 38 C0 25.46 0 12.92 0 0 Z " fill="#424242" transform="translate(351,266)"/>
<path d="M0 0 C4.36735241 3.68798648 8.67360862 7.44288031 12.9375 11.25 C13.89527344 12.10078125 14.85304688 12.9515625 15.83984375 13.828125 C18 16 18 16 18 18 C18.86625 18.40798828 18.86625 18.40798828 19.75 18.82421875 C25.55966739 21.86017341 30.02149159 25.82793907 34 31 C35.93996705 32.75658708 37.95005692 34.36936346 40 36 C40.66 35.67 41.32 35.34 42 35 C42 35.99 42 36.98 42 38 C40.68 38.66 39.36 39.32 38 40 C37.2265625 39.21496094 36.453125 38.42992187 35.65625 37.62109375 C28.96646162 30.86132851 22.16041084 24.42074943 14.8125 18.375 C11.49151446 15.57061221 8.49323813 12.53113757 5.4609375 9.421875 C4.93757813 8.89078125 4.41421875 8.3596875 3.875 7.8125 C3.39804687 7.32394531 2.92109375 6.83539063 2.4296875 6.33203125 C0.83130916 4.77101517 0.83130916 4.77101517 -2 3 C-1.34 2.01 -0.68 1.02 0 0 Z " fill="#D6E3ED" transform="translate(292,184)"/>
<path d="M0 0 C0.99 0 1.98 0 3 0 C3 3.3 3 6.6 3 10 C6.3 10 9.6 10 13 10 C13 7.03 13 4.06 13 1 C13.99 0.67 14.98 0.34 16 0 C16 7.26 16 14.52 16 22 C15.01 22 14.02 22 13 22 C13 19.03 13 16.06 13 13 C9.7 13 6.4 13 3 13 C3 15.97 3 18.94 3 22 C2.01 22 1.02 22 0 22 C0 14.74 0 7.48 0 0 Z " fill="#4C4C4C" transform="translate(211,334)"/>
<path d="M0 0 C4.39533095 2.29541995 7.98925427 4.66381217 10.49609375 9.05078125 C11.24609375 12.86328125 11.24609375 12.86328125 11.49609375 16.05078125 C10.83609375 15.39078125 10.17609375 14.73078125 9.49609375 14.05078125 C9.16609375 17.35078125 8.83609375 20.65078125 8.49609375 24.05078125 C7.83609375 24.05078125 7.17609375 24.05078125 6.49609375 24.05078125 C6.56570312 23.26574219 6.6353125 22.48070312 6.70703125 21.671875 C7.15570855 14.20606815 7.15570855 14.20606815 3.68359375 7.86328125 C0.86538013 5.00331631 -1.33748295 4.08981817 -5.421875 3.953125 C-6.50082031 3.96472656 -7.57976562 3.97632813 -8.69140625 3.98828125 C-9.77808594 3.99730469 -10.86476562 4.00632812 -11.984375 4.015625 C-12.81582031 4.02722656 -13.64726562 4.03882813 -14.50390625 4.05078125 C-14.50390625 4.71078125 -14.50390625 5.37078125 -14.50390625 6.05078125 C-15.49390625 6.38078125 -16.48390625 6.71078125 -17.50390625 7.05078125 C-17.83390625 5.40078125 -18.16390625 3.75078125 -18.50390625 2.05078125 C-12.6221438 -1.66401609 -6.53672542 -2.47804099 0 0 Z " fill="#2A2A2A" transform="translate(146.50390625,267.94921875)"/>
<path d="M0 0 C22.77 0.33 45.54 0.66 69 1 C69.495 3.475 69.495 3.475 70 6 C69.34 6.33 68.68 6.66 68 7 C68 5.68 68 4.36 68 3 C66.76638229 3.00999275 66.76638229 3.00999275 65.50784302 3.02018738 C57.76779184 3.08022999 50.02785314 3.1259393 42.28763008 3.15543652 C38.30802626 3.17111101 34.32861441 3.19238138 30.34912109 3.22631836 C26.51065044 3.25884887 22.67236476 3.27683957 18.83376694 3.28463173 C17.36727866 3.29018666 15.90080082 3.30103379 14.43439102 3.31719017 C12.38458409 3.33888161 10.33554725 3.34197055 8.28564453 3.34057617 C7.11760284 3.34723801 5.94956116 3.35389984 4.74612427 3.36076355 C3.83990326 3.24171158 2.93368225 3.12265961 2 3 C1.34 2.01 0.68 1.02 0 0 Z " fill="#BAD7F0" transform="translate(334,226)"/>
<path d="M0 0 C3.41084159 0.27178021 4.98580242 1.67395116 7.25 4.125 C10.27644745 7.28609871 13.42702058 10.17370007 16.7421875 13.02734375 C20.45154294 16.26821658 24.05853087 19.62221092 27.6796875 22.9609375 C29.81946882 25.01577328 29.81946882 25.01577328 32 26 C32 26.66 32 27.32 32 28 C31.01 28 30.02 28 29 28 C27.88681959 26.64331138 26.78000799 25.28106878 25.69921875 23.8984375 C22.79765793 20.65669369 19.32882946 18.10000234 15.9375 15.390625 C11.47531158 11.75916314 7.23796506 7.88863172 3 4 C-5.74512836 7.88446399 -12.99955976 15.79179614 -19.90625 22.25 C-22 24 -22 24 -25 25 C-23.90303373 21.7091012 -23.15198144 21.03203283 -20.5625 18.875 C-17.29603876 16.10114692 -14.06501309 13.2993423 -10.875 10.4375 C-10.03453125 9.68597656 -9.1940625 8.93445313 -8.328125 8.16015625 C-6.32428285 6.3008866 -4.47263892 4.38594034 -2.625 2.375 C-1.325625 1.199375 -1.325625 1.199375 0 0 Z " fill="#2E5794" transform="translate(217,191)"/>
<path d="M0 0 C4.62 0 9.24 0 14 0 C14 0.99 14 1.98 14 3 C10.37 3 6.74 3 3 3 C3 13.89 3 24.78 3 36 C2.01 36 1.02 36 0 36 C0 24.12 0 12.24 0 0 Z " fill="#030303" transform="translate(282,268)"/>
<path d="M0 0 C-1 3 -1 3 -3 4 C-3.41378906 4.72703125 -3.82757813 5.4540625 -4.25390625 6.203125 C-6.36780237 9.58914204 -9.00209451 12.09705131 -11.9375 14.75 C-12.46279297 15.24371094 -12.98808594 15.73742187 -13.52929688 16.24609375 C-18.22097347 20.53260678 -20.92782556 21 -27 21 C-24.29440385 18.43459719 -21.5850335 15.87321422 -18.875 13.3125 C-18.11445313 12.59126953 -17.35390625 11.87003906 -16.5703125 11.12695312 C-14.39237399 9.07105427 -12.201356 7.03078461 -10 5 C-9.4215332 4.46036621 -8.84306641 3.92073242 -8.24707031 3.36474609 C-5.15408367 0.60558401 -4.33176116 0 0 0 Z " fill="#D1E2ED" transform="translate(196,210)"/>
<path d="M0 0 C0.33 0.66 0.66 1.32 1 2 C1.98731742 3.34275169 2.98594743 4.67732273 4 6 C-0.39453125 10.00390625 -0.39453125 10.00390625 -2 11 C-2.99 10.67 -3.98 10.34 -5 10 C-8.48331435 13.01887244 -9.79157144 15.56909529 -11 20 C-13.475 19.01 -13.475 19.01 -16 18 C-16 17.01 -16 16.02 -16 15 C-15.34 15 -14.68 15 -14 15 C-14 14.01 -14 13.02 -14 12 C-14.66 12 -15.32 12 -16 12 C-16 11.34 -16 10.68 -16 10 C-14.68 10 -13.36 10 -12 10 C-12 9.34 -12 8.68 -12 8 C-10.02 7.01 -8.04 6.02 -6 5 C-5.67 5.66 -5.34 6.32 -5 7 C-3.7018576 4.7763932 -3.7018576 4.7763932 -4 1 C-2 0 -2 0 0 0 Z " fill="#024AAC" transform="translate(205,187)"/>
<path d="M0 0 C0.66 0 1.32 0 2 0 C2.8394882 2.10171867 3.67139656 4.20646625 4.5 6.3125 C4.9640625 7.48425781 5.428125 8.65601563 5.90625 9.86328125 C7 13 7 13 7 16 C2.71 16 -1.58 16 -6 16 C-4.23196827 10.52752083 -2.34565002 5.24978815 0 0 Z " fill="#E7E7E7" transform="translate(227,275)"/>
<path d="M0 0 C3.18559952 1.39633107 5.23943845 3.04557493 7.625 5.5625 C10.04521959 8.14015389 10.04521959 8.14015389 13 10 C13 10.66 13 11.32 13 12 C13.56203125 12.24492187 14.1240625 12.48984375 14.703125 12.7421875 C17.41865854 14.22926539 19.46391438 16.04062782 21.75 18.125 C22.54921875 18.84945312 23.3484375 19.57390625 24.171875 20.3203125 C24.77515625 20.87460938 25.3784375 21.42890625 26 22 C24.25 23.125 24.25 23.125 22 24 C18.23392999 22.89538498 16.23403243 20.2298978 13.75 17.3125 C10.27572933 13.33862347 6.70309582 9.82254545 2.62890625 6.47265625 C1 5 1 5 -1 2 C-0.67 1.34 -0.34 0.68 0 0 Z " fill="#E4F3FC" transform="translate(302,203)"/>
<path d="M0 0 C0.99 0 1.98 0 3 0 C3.33 6.27 3.66 12.54 4 19 C6.31 18.34 8.62 17.68 11 17 C12.15570704 13.53287889 12.32835293 10.4585044 12.5625 6.8125 C12.64628906 5.54019531 12.73007812 4.26789063 12.81640625 2.95703125 C12.87699219 1.98121094 12.93757813 1.00539063 13 0 C13.66 0 14.32 0 15 0 C15.13517903 2.75164432 15.23415251 5.49664521 15.3125 8.25 C15.3753418 9.41595703 15.3753418 9.41595703 15.43945312 10.60546875 C15.56308762 16.39156304 15.56308762 16.39156304 12.671875 19.515625 C9.41727179 21.32373789 7.66769864 21.62428913 4 21 C1.83203125 19.515625 1.83203125 19.515625 0 17 C-0.48623456 14.06694369 -0.37774266 11.21264705 -0.25 8.25 C-0.23195312 7.45722656 -0.21390625 6.66445313 -0.1953125 5.84765625 C-0.14833082 3.89791652 -0.07659044 1.94880122 0 0 Z " fill="#2F2F2F" transform="translate(244,335)"/>
<path d="M0 0 C3.40234949 4.53646598 3.40234949 4.53646598 2.875 8.4375 C1.80420109 15.19346836 -1.19995436 18.86416603 -6.66015625 22.83984375 C-10.67689207 24.83144732 -14.63400182 24.48312275 -19 24 C-19 23.01 -19 22.02 -19 21 C-18.00419922 20.85304688 -18.00419922 20.85304688 -16.98828125 20.703125 C-11.64664026 19.79855514 -7.90387926 19.02587549 -4 15 C-3.34 14.01 -2.68 13.02 -2 12 C-1.34 12 -0.68 12 0 12 C0 8.04 0 4.08 0 0 Z " fill="#1C1C1C" transform="translate(155,280)"/>
<path d="M0 0 C2.64 1.98 5.28 3.96 8 6 C7.67 6.66 7.34 7.32 7 8 C5.68 7.67 4.36 7.34 3 7 C1.73976789 11.45584935 1.73976789 11.45584935 2.9765625 15.73046875 C4.23823419 17.22455365 5.61723011 18.61723011 7 20 C7.66 20.66 8.32 21.32 9 22 C5.25983417 22 4.54723807 21.0658409 1.8125 18.625 C1.09707031 17.99851563 0.38164062 17.37203125 -0.35546875 16.7265625 C-2 15 -2 15 -2 13 C-2.5775 12.7525 -3.155 12.505 -3.75 12.25 C-6.3002997 10.83316683 -8.01785701 9.12372463 -10 7 C-5.545 6.505 -5.545 6.505 -1 6 C-0.67 4.02 -0.34 2.04 0 0 Z " fill="#1452A7" transform="translate(242,191)"/>
<path d="M0 0 C0.70511719 0.70769531 1.41023438 1.41539062 2.13671875 2.14453125 C4.0426529 4.05180997 5.96274343 5.94314768 7.89453125 7.82421875 C8.86721196 8.7786209 9.83986808 9.73304812 10.8125 10.6875 C11.56563477 11.41549805 11.56563477 11.41549805 12.33398438 12.15820312 C13.59417273 13.40124606 14.80191044 14.69699892 16 16 C16 16.66 16 17.32 16 18 C10.75948428 17.56715504 8.26684521 15.96429039 4.375 12.5 C0.22647505 8.67129711 0.22647505 8.67129711 -5 7 C-4.34 5.68 -3.68 4.36 -3 3 C-2.01 3 -1.02 3 0 3 C0 2.01 0 1.02 0 0 Z " fill="#4F4E4F" transform="translate(334,206)"/>
<path d="M0 0 C1.43655854 -0.08131463 2.8744483 -0.13933559 4.3125 -0.1875 C5.51326172 -0.23970703 5.51326172 -0.23970703 6.73828125 -0.29296875 C9 0 9 0 10.8203125 1.2890625 C12.74423118 4.07938164 11.52541261 6.78914516 11 10 C11.66 10.66 12.32 11.32 13 12 C12.8125 15.5 12.8125 15.5 12 19 C8.79619983 21.13586678 7.98060033 21.23132175 4.3125 21.125 C3.10013672 21.09792969 3.10013672 21.09792969 1.86328125 21.0703125 C1.24839844 21.04710937 0.63351562 21.02390625 0 21 C0 18.36 0 15.72 0 13 C0.33 13 0.66 13 1 13 C1 14.98 1 16.96 1 19 C4.96 18.505 4.96 18.505 9 18 C9.33 16.02 9.66 14.04 10 12 C7.03 11.505 7.03 11.505 4 11 C5.375 9.5 5.375 9.5 7 8 C7.66 8 8.32 8 9 8 C8.67 6.35 8.34 4.7 8 3 C5.69 2.67 3.38 2.34 1 2 C1 3.65 1 5.3 1 7 C0.67 7 0.34 7 0 7 C0 4.69 0 2.38 0 0 Z " fill="#1C1C1C" transform="translate(277,335)"/>
<path d="M0 0 C0.66 0.33 1.32 0.66 2 1 C0.35 2.65 -1.3 4.3 -3 6 C-2.67 6.66 -2.34 7.32 -2 8 C-2.680625 8.350625 -3.36125 8.70125 -4.0625 9.0625 C-8.76882443 12.16667143 -12.48685403 16.27069032 -16.1875 20.5 C-16.785625 20.995 -17.38375 21.49 -18 22 C-20.25 21.75 -20.25 21.75 -22 21 C-22 19 -22 19 -20.7421875 17.6953125 C-19.81792969 16.91800781 -19.81792969 16.91800781 -18.875 16.125 C-17.80378906 15.21427734 -17.80378906 15.21427734 -16.7109375 14.28515625 C-15.81632813 13.53105469 -14.92171875 12.77695313 -14 12 C-12.14139471 10.40905458 -10.28582272 8.81460933 -8.43017578 7.22021484 C-5.62339722 4.80963726 -2.81164225 2.40490187 0 0 Z M-24 21 C-23.34 21.33 -22.68 21.66 -22 22 C-24.97 24.475 -24.97 24.475 -28 27 C-28.66 26.67 -29.32 26.34 -30 26 C-28.02 24.35 -26.04 22.7 -24 21 Z " fill="#DEE6EB" transform="translate(222,162)"/>
<path d="M0 0 C1.1859375 0.00257813 2.371875 0.00515625 3.59375 0.0078125 C4.7796875 0.00523437 5.965625 0.00265625 7.1875 0 C10.09375 0.1328125 10.09375 0.1328125 11.09375 1.1328125 C11.09375 3.1128125 11.09375 5.0928125 11.09375 7.1328125 C6.14375 7.1328125 1.19375 7.1328125 -3.90625 7.1328125 C-3.90625 0.17851142 -3.90625 0.17851142 0 0 Z " fill="#838282" transform="translate(214.90625,206.8671875)"/>
<path d="M0 0 C7.26 0 14.52 0 22 0 C22 0.33 22 0.66 22 1 C18.7 1 15.4 1 12 1 C12 1.66 12 2.32 12 3 C11.34 3 10.68 3 10 3 C10 14.22 10 25.44 10 37 C9.67 37 9.34 37 9 37 C9 26.11 9 15.22 9 4 C6.03 4 3.06 4 0 4 C0 2.68 0 1.36 0 0 Z " fill="#4C4C4C" transform="translate(386,267)"/>
<path d="M0 0 C0.66 0 1.32 0 2 0 C2.99 2.97 3.98 5.94 5 9 C3.33333333 9 1.66666667 9 0 9 C-0.103125 9.66 -0.20625 10.32 -0.3125 11 C-1.19213564 14.83841009 -2.56969896 18.33096691 -4 22 C-4.66 21.34 -5.32 20.68 -6 20 C-6.66 20.33 -7.32 20.66 -8 21 C-5.72564796 13.81783567 -2.96415819 6.9241798 0 0 Z " fill="#272727" transform="translate(227,266)"/>
<path d="M0 0 C0.99 0 1.98 0 3 0 C2.34 1.32 1.68 2.64 1 4 C-22.43 4 -45.86 4 -70 4 C-70 3.01 -70 2.02 -70 1 C-69.34 1 -68.68 1 -68 1 C-68 1.66 -68 2.32 -68 3 C-45.56 3 -23.12 3 0 3 C0 2.01 0 1.02 0 0 Z " fill="#144790" transform="translate(168,228)"/>
<path d="M0 0 C2.42305451 0.8540067 3.65419088 1.87877908 5.49780273 3.65673828 C6.12162842 4.25019043 6.7454541 4.84364258 7.38818359 5.45507812 C8.36283569 6.40181396 8.36283569 6.40181396 9.35717773 7.36767578 C10.69616588 8.64461523 12.03600224 9.92066587 13.37670898 11.19580078 C14.01817871 11.80875 14.65964844 12.42169922 15.32055664 13.05322266 C18.49273393 16.0528765 21.78097352 18.91593354 25.10717773 21.74267578 C20.75787043 21.74267578 18.88451846 19.04699472 15.91967773 16.18017578 C14.75635933 15.07912865 13.59229788 13.97886606 12.42749023 12.87939453 C11.86191406 12.34233887 11.29633789 11.8052832 10.71362305 11.25195312 C7.59457547 8.32156526 4.35463305 5.52901206 1.10717773 2.74267578 C-3.21329124 4.15947822 -5.89743425 6.28031364 -9.20532227 9.36767578 C-10.08833008 10.18494141 -10.97133789 11.00220703 -11.88110352 11.84423828 C-12.5449707 12.47072266 -13.20883789 13.09720703 -13.89282227 13.74267578 C-14.55282227 13.41267578 -15.21282227 13.08267578 -15.89282227 12.74267578 C-12.40934895 9.16390988 -8.87726906 5.62849685 -5.20532227 2.24267578 C-4.66520508 1.73736328 -4.12508789 1.23205078 -3.56860352 0.71142578 C-1.89282227 -0.25732422 -1.89282227 -0.25732422 0 0 Z " fill="#5B769D" transform="translate(291.892822265625,198.25732421875)"/>
<path d="M0 0 C3.17483445 4.2331126 3.36878745 4.90588688 3.29296875 9.859375 C3.28330078 10.97441406 3.27363281 12.08945312 3.26367188 13.23828125 C3.23853516 14.39714844 3.21339844 15.55601562 3.1875 16.75 C3.17396484 17.92433594 3.16042969 19.09867187 3.14648438 20.30859375 C3.1111478 23.20619298 3.06180979 26.10286427 3 29 C2.01 29 1.02 29 0 29 C0 19.43 0 9.86 0 0 Z " fill="#010101" transform="translate(352,275)"/>
<path d="M0 0 C3.875 1.875 3.875 1.875 5 3 C7.11605096 3.12391682 9.23621283 3.17799906 11.35571289 3.20532227 C12.01910172 3.21522186 12.68249054 3.22512146 13.36598206 3.23532104 C15.56816995 3.26701737 17.77037945 3.29172534 19.97265625 3.31640625 C21.49580968 3.33696878 23.01895731 3.35796505 24.542099 3.37937927 C28.55831214 3.43467247 32.57457738 3.48404963 36.59088135 3.53222656 C40.68628599 3.58238882 44.78161461 3.63810236 48.87695312 3.69335938 C56.91790455 3.80102954 64.95891941 3.90245467 73 4 C73 4.33 73 4.66 73 5 C64.07261759 5.04634244 55.1452766 5.08187889 46.21780014 5.10362434 C42.07240296 5.11406111 37.92708809 5.12821835 33.78173828 5.15087891 C29.78117311 5.17261111 25.78068709 5.18456943 21.78006744 5.18975449 C20.25384525 5.19344956 18.72762739 5.20066511 17.2014389 5.21146011 C15.06355936 5.22598018 12.92600686 5.22797775 10.78808594 5.22705078 C9.5711908 5.231492 8.35429565 5.23593323 7.1005249 5.24050903 C4.14410837 5.01117855 2.48430115 4.55421583 0 3 C0 2.01 0 1.02 0 0 Z " fill="#EAFCFE" transform="translate(329,228)"/>
<path d="M0 0 C3.68620459 1.47448183 6.42026114 4.34052229 8.1875 7.875 C4.85416667 7.875 1.52083333 7.875 -1.8125 7.875 C-2.4725 7.215 -3.1325 6.555 -3.8125 5.875 C-6.39604218 5.70812552 -6.39604218 5.70812552 -8.8125 5.875 C-2.89369304 -0.19956504 -2.89369304 -0.19956504 0 0 Z " fill="#4F4F4F" transform="translate(245.8125,135.125)"/>
<path d="M0 0 C0.99 0 1.98 0 3 0 C3 3.63 3 7.26 3 11 C6.3 11 9.6 11 13 11 C13 11.33 13 11.66 13 12 C9.37 12 5.74 12 2 12 C2 15.3 2 18.6 2 22 C1.34 22 0.68 22 0 22 C0 14.74 0 7.48 0 0 Z " fill="#2C2C2C" transform="translate(211,334)"/>
<path d="M0 0 C4.40595131 1.3462629 6.58291088 3.06103995 9 7 C9.5625 10.0625 9.5625 10.0625 9 13 C6.5 15.375 6.5 15.375 4 17 C3.34 16.67 2.68 16.34 2 16 C2.66 15.01 3.32 14.02 4 13 C4.21314985 9.5896024 4.084894 7.25468201 3 4 C2.01 4 1.02 4 0 4 C0 2.68 0 1.36 0 0 Z " fill="#1F1F1F" transform="translate(296,268)"/>
<path d="M0 0 C6.93 0 13.86 0 21 0 C21 0.99 21 1.98 21 3 C14.4 3 7.8 3 1 3 C0.67 2.01 0.34 1.02 0 0 Z " fill="#0A0A0A" transform="translate(317,268)"/>
<path d="M0 0 C5.75 -0.125 5.75 -0.125 8 1 C8.04254356 2.99954746 8.04080783 5.00041636 8 7 C7 8 7 8 3.4375 8.0625 C2.303125 8.041875 1.16875 8.02125 0 8 C0 5.36 0 2.72 0 0 Z " fill="#ECECEC" transform="translate(279,346)"/>
<path d="M0 0 C2.475 0.99 2.475 0.99 5 2 C5 2.66 5 3.32 5 4 C6.32 4.66 7.64 5.32 9 6 C9 6.66 9 7.32 9 8 C4.17639811 8.19294408 0.50353262 7.75747614 -4 6 C-3.67 4.68 -3.34 3.36 -3 2 C-2.34 2 -1.68 2 -1 2 C-0.67 1.34 -0.34 0.68 0 0 Z " fill="#024AAE" transform="translate(272,223)"/>
<path d="M0 0 C5.11723176 3.19826985 9.52692892 6.95834187 14 11 C10.16290601 12.27903133 8.69151452 11.50674062 5 10 C1.12015153 7.78294373 -0.20867019 5.03049208 -2 1 C-1.34 0.67 -0.68 0.34 0 0 Z " fill="#E2EFF7" transform="translate(255,220)"/>
<path d="M0 0 C4.17443363 3.50074982 8.3145494 6.97950843 12 11 C12 11.66 12 12.32 12 13 C9.29120665 14.35439668 6.99066732 14.06501451 4 14 C4.4021875 12.6696875 4.4021875 12.6696875 4.8125 11.3125 C4.874375 10.219375 4.93625 9.12625 5 8 C2.62494782 5.29151077 2.62494782 5.29151077 0 3 C0 2.01 0 1.02 0 0 Z " fill="#084AA7" transform="translate(230,180)"/>
<path d="M0 0 C3.33282575 0.59331623 5.08203499 1.66061527 7.5625 3.9375 C8.24699219 4.55753906 8.93148437 5.17757812 9.63671875 5.81640625 C10.41660156 6.53699219 11.19648438 7.25757813 12 8 C13.46259518 9.3402188 14.92524539 10.68038099 16.39038086 12.01782227 C17.82380852 13.32820285 19.25185226 14.64446545 20.6796875 15.9609375 C22.81946882 18.01577328 22.81946882 18.01577328 25 19 C25 19.66 25 20.32 25 21 C24.01 21 23.02 21 22 21 C20.89146456 19.64897243 19.78935202 18.29230715 18.71484375 16.9140625 C14.98687675 12.75300594 10.36420156 9.46456352 6 6 C3.96976875 4.36109195 1.97381714 2.70708509 0 1 C0 0.67 0 0.34 0 0 Z " fill="#325B8F" transform="translate(224,198)"/>
<path d="M0 0 C2.49361571 1.20381448 4.68143083 2.45428722 7 4 C9.73872955 4.45772063 9.73872955 4.45772063 12.6875 4.625 C13.68136719 4.69976562 14.67523438 4.77453125 15.69921875 4.8515625 C16.45847656 4.90054687 17.21773437 4.94953125 18 5 C18 5.33 18 5.66 18 6 C15.36 6 12.72 6 10 6 C10 6.99 10 7.98 10 9 C4.58657319 7.85485202 2.0657052 6.65987191 -1 2 C-0.67 1.34 -0.34 0.68 0 0 Z " fill="#252525" transform="translate(126,295)"/>
<path d="M0 0 C0.66 0 1.32 0 2 0 C2.13517903 2.75164432 2.23415251 5.49664521 2.3125 8.25 C2.3753418 9.41595703 2.3753418 9.41595703 2.43945312 10.60546875 C2.56310631 16.39243793 2.56310631 16.39243793 -0.375 19.5625 C-3 21 -3 21 -5.3125 20.75 C-5.869375 20.5025 -6.42625 20.255 -7 20 C-6.195625 19.566875 -5.39125 19.13375 -4.5625 18.6875 C-1.72153646 17.19525998 -1.72153646 17.19525998 -1 14 C-0.77439324 11.60745424 -0.59151405 9.21071877 -0.4375 6.8125 C-0.35371094 5.54019531 -0.26992188 4.26789063 -0.18359375 2.95703125 C-0.12300781 1.98121094 -0.06242187 1.00539063 0 0 Z " fill="#131313" transform="translate(257,335)"/>
<path d="M0 0 C0.66 0.66 1.32 1.32 2 2 C1.63318342 4.93453261 1.13562754 5.86437246 -1 8 C-3.68839385 8.26991906 -6.29141936 8.08737357 -9 8 C-7.50164772 3.33845958 -4.11536409 2.13389249 0 0 Z " fill="#585858" transform="translate(148,216)"/>
<path d="M0 0 C3.23861303 1.44424635 5.61969163 3.25772247 8.25 5.625 C8.95640625 6.25664062 9.6628125 6.88828125 10.390625 7.5390625 C10.92171875 8.02117187 11.4528125 8.50328125 12 9 C8.25 11.0703125 8.25 11.0703125 6 10.4375 C3.41360245 8.57852676 1.7657436 6.6486154 0 4 C0 2.68 0 1.36 0 0 Z " fill="#DBE9F4" transform="translate(316,216)"/>
<path d="M0 0 C1.65 0 3.3 0 5 0 C5 3.3 5 6.6 5 10 C3.35 10 1.7 10 0 10 C0 6.7 0 3.4 0 0 Z " fill="#6B696A" transform="translate(286,210)"/>
<path d="M0 0 C4.875 1.75 4.875 1.75 6 4 C4.68 3.67 3.36 3.34 2 3 C1.67 3.66 1.34 4.32 1 5 C0.34 5 -0.32 5 -1 5 C-1.2475 5.598125 -1.495 6.19625 -1.75 6.8125 C-3.19482573 9.34094503 -4.48280545 10.55070617 -7 12 C-7.99 11.67 -8.98 11.34 -10 11 C-9.34 10.01 -8.68 9.02 -8 8 C-7.34 8 -6.68 8 -6 8 C-5.7525 7.4225 -5.505 6.845 -5.25 6.25 C-3.83316683 3.6997003 -2.12372463 1.98214299 0 0 Z " fill="#4A4A4A" transform="translate(190,166)"/>
<path d="M0 0 C1.99954746 -0.04254356 4.00041636 -0.04080783 6 0 C7 1 7 1 7.0625 3.5625 C7.041875 4.366875 7.02125 5.17125 7 6 C4.69 6.33 2.38 6.66 0 7 C0 4.69 0 2.38 0 0 Z " fill="#F8F8F8" transform="translate(279,337)"/>
<path d="M0 0 C1.43655854 -0.08131463 2.8744483 -0.13933559 4.3125 -0.1875 C5.51326172 -0.23970703 5.51326172 -0.23970703 6.73828125 -0.29296875 C9 0 9 0 10.8046875 1.31640625 C12 3 12 3 11.8125 6.125 C11.544375 7.07375 11.27625 8.0225 11 9 C10.01 9.495 10.01 9.495 9 10 C8.34 9.34 7.68 8.68 7 8 C7.66 8 8.32 8 9 8 C8.67 6.35 8.34 4.7 8 3 C5.69 2.67 3.38 2.34 1 2 C1 3.65 1 5.3 1 7 C0.67 7 0.34 7 0 7 C0 4.69 0 2.38 0 0 Z " fill="#222222" transform="translate(277,335)"/>
<path d="M0 0 C-1.33801412 3.0649092 -2.70907981 4.85360933 -5.3125 6.9375 C-8.40085008 9.47666649 -11.21624966 12.13189359 -14 15 C-14.33 14.01 -14.66 13.02 -15 12 C-3.31123919 0 -3.31123919 0 0 0 Z " fill="#E7F5FE" transform="translate(202,183)"/>
<path d="M0 0 C4.4062186 1.34634457 6.43077702 3.19374374 9 7 C9 7.66 9 8.32 9 9 C6.75 9.3125 6.75 9.3125 4 9 C1.8125 6.625 1.8125 6.625 0 4 C-0.66 3.34 -1.32 2.68 -2 2 C-1.34 1.34 -0.68 0.68 0 0 Z " fill="#2B2B2B" transform="translate(195,270)"/>
<path d="M0 0 C0.33 0 0.66 0 1 0 C1 2.64 1 5.28 1 8 C1.66 8 2.32 8 3 8 C3.66 9.65 4.32 11.3 5 13 C3.68 13.33 2.36 13.66 1 14 C-1.97071449 9.91526758 -2.47325628 7.0165166 -2 2 C-1.34 1.34 -0.68 0.68 0 0 Z " fill="#1E1E1E" transform="translate(123,282)"/>
<path d="M0 0 C0.33 0.99 0.66 1.98 1 3 C0.01 3.33 -0.98 3.66 -2 4 C-2.33 4.99 -2.66 5.98 -3 7 C-4.62890625 8.38671875 -4.62890625 8.38671875 -6.5625 9.6875 C-7.52349609 10.34298828 -7.52349609 10.34298828 -8.50390625 11.01171875 C-8.99761719 11.33785156 -9.49132812 11.66398438 -10 12 C-10.33 11.01 -10.66 10.02 -11 9 C-9.54782324 7.49403892 -8.08807139 5.99537896 -6.625 4.5 C-5.40683594 3.24703125 -5.40683594 3.24703125 -4.1640625 1.96875 C-2 0 -2 0 0 0 Z " fill="#114EA2" transform="translate(178,208)"/>
<path d="M0 0 C4.55384615 -0.36923077 4.55384615 -0.36923077 6.8125 1.5 C7.204375 1.995 7.59625 2.49 8 3 C8 2.01 8 1.02 8 0 C10.97 0.495 10.97 0.495 14 1 C12.89131683 3.21736634 11.50559539 5.03617993 10 7 C5.56541027 5.6062718 3.12621626 3.39417765 0 0 Z " fill="#4A4A49" transform="translate(276,179)"/>
<path d="M0 0 C-0.56132934 3.5371438 -1.69557747 4.99261679 -4.4375 7.25 C-5.05496094 7.77078125 -5.67242187 8.2915625 -6.30859375 8.828125 C-8 10 -8 10 -10 10 C-9.84876423 7.35337395 -9.49998757 5.55721506 -7.703125 3.5546875 C-3.6 0 -3.6 0 0 0 Z " fill="#171717" transform="translate(203,293)"/>
<path d="M0 0 C2.31 0 4.62 0 7 0 C7 1.98 7 3.96 7 6 C4.69 6 2.38 6 0 6 C0 4.02 0 2.04 0 0 Z " fill="#545454" transform="translate(211,216)"/>
<path d="M0 0 C2.31 0 4.62 0 7 0 C7.042721 1.66611905 7.04063832 3.33382885 7 5 C6 6 6 6 2.9375 6.0625 C1.4834375 6.0315625 1.4834375 6.0315625 0 6 C0 4.02 0 2.04 0 0 Z " fill="#5B5B5A" transform="translate(219,216)"/>
<path d="M0 0 C0 0.33 0 0.66 0 1 C-2.64 1.33 -5.28 1.66 -8 2 C-8.33 2.99 -8.66 3.98 -9 5 C-9.99 5 -10.98 5 -12 5 C-12 5.66 -12 6.32 -12 7 C-12.99 7.33 -13.98 7.66 -15 8 C-15.33 6.35 -15.66 4.7 -16 3 C-10.62669111 -0.39366878 -6.13053511 -0.32712342 0 0 Z " fill="#323232" transform="translate(144,267)"/>
<path d="M0 0 C0.87785156 -0.00257813 1.75570312 -0.00515625 2.66015625 -0.0078125 C4.9375 0.125 4.9375 0.125 6.9375 1.125 C6.6075 2.115 6.2775 3.105 5.9375 4.125 C4.16594346 4.01070603 2.39523771 3.88316963 0.625 3.75 C-0.36113281 3.68039062 -1.34726563 3.61078125 -2.36328125 3.5390625 C-5.0625 3.125 -5.0625 3.125 -8.0625 1.125 C-5.09900719 0.13716906 -3.0912337 -0.00910525 0 0 Z " fill="#0D0D0D" transform="translate(141.0625,267.875)"/>
<path d="M0 0 C3.71872691 2.0659594 5.88742431 3.88742431 9 7 C3.39 7 -2.22 7 -8 7 C-8.33 6.34 -8.66 5.68 -9 5 C-4.71 5.33 -0.42 5.66 4 6 C2.68 4.68 1.36 3.36 0 2 C0 1.34 0 0.68 0 0 Z " fill="#124791" transform="translate(277,225)"/>
<path d="M0 0 C0.33 0 0.66 0 1 0 C1 1.98 1 3.96 1 6 C3.31 6 5.62 6 8 6 C8 6.66 8 7.32 8 8 C5.69 8 3.38 8 1 8 C1 9.98 1 11.96 1 14 C0.67 14 0.34 14 0 14 C0 12.02 0 10.04 0 8 C-2.31 8 -4.62 8 -7 8 C-7 7.67 -7 7.34 -7 7 C-3.535 6.505 -3.535 6.505 0 6 C0 4.02 0 2.04 0 0 Z " fill="#EDEDED" transform="translate(218,208)"/>
<path d="M0 0 C2.91387197 0.2913872 3.82565583 0.79452294 5.75 3.0625 C6.36875 4.0215625 6.36875 4.0215625 7 5 C6.071875 4.773125 5.14375 4.54625 4.1875 4.3125 C3.135625 4.209375 2.08375 4.10625 1 4 C-0.60411246 5.35405861 -0.60411246 5.35405861 -2 7 C-4.6875 7.6875 -4.6875 7.6875 -7 8 C-6.02133662 6.85373678 -5.04205413 5.70800212 -4.0625 4.5625 C-3.51722656 3.92441406 -2.97195312 3.28632813 -2.41015625 2.62890625 C-1.63204305 1.73008851 -0.84063472 0.84063472 0 0 Z " fill="#2054A0" transform="translate(217,170)"/>
<path d="M0 0 C2.6015625 -0.29296875 2.6015625 -0.29296875 5.625 -0.1875 C7.12933594 -0.14689453 7.12933594 -0.14689453 8.6640625 -0.10546875 C9.43492188 -0.07066406 10.20578125 -0.03585937 11 0 C11 0.99 11 1.98 11 3 C6.71 3 2.42 3 -2 3 C-1.34 2.01 -0.68 1.02 0 0 Z " fill="#030303" transform="translate(100,301)"/>
<path d="M0 0 C3.36591866 1.44253657 5.51047079 3.33264727 8 6 C7.67 6.99 7.34 7.98 7 9 C3.942048 7.26440562 1.36620011 5.61527381 -1 3 C-0.67 2.01 -0.34 1.02 0 0 Z " fill="#1A4F9C" transform="translate(307,203)"/>
<path d="M0 0 C3.86648272 1.04097612 7.49461443 2.03698408 11 4 C10.67 4.99 10.34 5.98 10 7 C9.01 7.33 8.02 7.66 7 8 C1.29824561 3.89473684 1.29824561 3.89473684 0 0 Z " fill="#EBF1F5" transform="translate(239,187)"/>
<path d="M0 0 C5.61 0.33 11.22 0.66 17 1 C16.67 2.32 16.34 3.64 16 5 C16 4.01 16 3.02 16 2 C14.20759337 2.11389875 12.41605165 2.24147687 10.625 2.375 C9.62726563 2.44460938 8.62953125 2.51421875 7.6015625 2.5859375 C4.84491121 2.76363964 4.84491121 2.76363964 3 5 C2.01 5 1.02 5 0 5 C0 3.35 0 1.7 0 0 Z " fill="#282828" transform="translate(95,299)"/>
<path d="M0 0 C0.99 0 1.98 0 3 0 C4.76462683 3.08809695 5 4.23312136 5 8 C3.68 8 2.36 8 1 8 C0.34 5.69 -0.32 3.38 -1 1 C-0.67 0.67 -0.34 0.34 0 0 Z " fill="#292929" transform="translate(238,296)"/>
<path d="M0 0 C-0.33 3.63 -0.66 7.26 -1 11 C-1.99 11 -2.98 11 -4 11 C-4.3682455 3.51234156 -4.3682455 3.51234156 -2.5625 1 C-1 0 -1 0 0 0 Z " fill="#121212" transform="translate(173,277)"/>
<path d="M0 0 C0 0.66 0 1.32 0 2 C-4.29 2 -8.58 2 -13 2 C-8.25004073 -1.56246945 -5.27750592 -3.3228741 0 0 Z " fill="#0249B0" transform="translate(168,229)"/>
<path d="M0 0 C1.125 3.75 1.125 3.75 0 6 C-1.65 5.67 -3.3 5.34 -5 5 C-5 4.34 -5 3.68 -5 3 C-5.66 3 -6.32 3 -7 3 C-7 2.34 -7 1.68 -7 1 C-4.53721199 -0.231394 -2.7204945 -0.07159196 0 0 Z " fill="#3F3F3F" transform="translate(244,140)"/>
<path d="M0 0 C0 1.32 0 2.64 0 4 C-3.3 4 -6.6 4 -10 4 C-10 3.01 -10 2.02 -10 1 C-2.25 0 -2.25 0 0 0 Z " fill="#0A0A0A" transform="translate(146,300)"/>
<path d="M0 0 C0.99 0.33 1.98 0.66 3 1 C3 2.65 3 4.3 3 6 C3.99 6 4.98 6 6 6 C6.33 8.64 6.66 11.28 7 14 C6.34 14 5.68 14 5 14 C5 12.02 5 10.04 5 8 C3.02 8.99 3.02 8.99 1 10 C-0.2077558 6.37673261 0.45688872 5.35853631 2 2 C1.01 1.67 0.02 1.34 -1 1 C-0.67 0.67 -0.34 0.34 0 0 Z " fill="#696868" transform="translate(159,200)"/>
<path d="M0 0 C3.16033363 4.21377818 3.43052797 5.0489284 3 10 C2.67 10.66 2.34 11.32 2 12 C1.34 12 0.68 12 0 12 C0 8.04 0 4.08 0 0 Z M-2 12 C-1.01 12.495 -1.01 12.495 0 13 C-0.99 13.495 -0.99 13.495 -2 14 C-2 13.34 -2 12.68 -2 12 Z " fill="#060606" transform="translate(155,280)"/>
<path d="M0 0 C0.91007813 0.10183594 1.82015625 0.20367187 2.7578125 0.30859375 C3.45648438 0.39238281 4.15515625 0.47617187 4.875 0.5625 C4.545 1.5525 4.215 2.5425 3.875 3.5625 C2.22833797 3.4489371 0.58263918 3.32132619 -1.0625 3.1875 C-1.97902344 3.11789062 -2.89554688 3.04828125 -3.83984375 2.9765625 C-4.97099609 2.77160156 -4.97099609 2.77160156 -6.125 2.5625 C-6.455 1.9025 -6.785 1.2425 -7.125 0.5625 C-4.50184968 -0.74907516 -2.89466564 -0.33399988 0 0 Z " fill="#040404" transform="translate(190.125,268.4375)"/>
<path d="M0 0 C0.86882812 -0.00515625 1.73765625 -0.0103125 2.6328125 -0.015625 C4.875 0.25 4.875 0.25 6.875 2.25 C6.24851563 2.21519531 5.62203125 2.18039062 4.9765625 2.14453125 C4.15929687 2.11746094 3.34203125 2.09039062 2.5 2.0625 C1.28183594 2.01029297 1.28183594 2.01029297 0.0390625 1.95703125 C-0.67507812 2.05371094 -1.38921875 2.15039062 -2.125 2.25 C-3.115 3.735 -3.115 3.735 -4.125 5.25 C-6.0625 4.875 -6.0625 4.875 -8.125 4.25 C-8.455 3.59 -8.785 2.93 -9.125 2.25 C-5.97530499 0.40413223 -3.63615326 -0.02170838 0 0 Z " fill="#313131" transform="translate(187.125,266.75)"/>
<path d="M0 0 C2.475 0.495 2.475 0.495 5 1 C5 1.66 5 2.32 5 3 C6.65 2.67 8.3 2.34 10 2 C10.33 3.32 10.66 4.64 11 6 C10.34 6 9.68 6 9 6 C8.67 6.66 8.34 7.32 8 8 C6.66372225 6.85760183 5.33104612 5.71098945 4 4.5625 C3.2575 3.92441406 2.515 3.28632813 1.75 2.62890625 C1.1725 2.09136719 0.595 1.55382812 0 1 C0 0.67 0 0.34 0 0 Z " fill="#1E56A9" transform="translate(256,220)"/>
<path d="M0 0 C0.66 0.99 1.32 1.98 2 3 C-2.75 7 -2.75 7 -5 7 C-5 7.66 -5 8.32 -5 9 C-6.32 8.67 -7.64 8.34 -9 8 C-8.01 7.67 -7.02 7.34 -6 7 C-5.67 6.01 -5.34 5.02 -5 4 C-3.37667033 2.61423077 -1.71275535 1.27358732 0 0 Z " fill="#2059A9" transform="translate(198,188)"/>
<path d="M0 0 C1.65 1.32 3.3 2.64 5 4 C5.66 3.67 6.32 3.34 7 3 C7 3.99 7 4.98 7 6 C5.02 6.99 5.02 6.99 3 8 C1.35 6.02 -0.3 4.04 -2 2 C-1.34 2 -0.68 2 0 2 C0 1.34 0 0.68 0 0 Z " fill="#C8D6E0" transform="translate(327,216)"/>
<path d="M0 0 C0.99 0.33 1.98 0.66 3 1 C1.71451591 2.33929505 0.42141845 3.67128643 -0.875 5 C-1.59429687 5.7425 -2.31359375 6.485 -3.0546875 7.25 C-5 9 -5 9 -7 9 C-7.33 9.66 -7.66 10.32 -8 11 C-7.42415568 8.61435923 -6.77772405 6.33317216 -6 4 C-5.01 3.67 -4.02 3.34 -3 3 C-2.67 2.34 -2.34 1.68 -2 1 C-1.34 1.33 -0.68 1.66 0 2 C0 1.34 0 0.68 0 0 Z " fill="#1D52A2" transform="translate(211,189)"/>
<path d="M0 0 C3.3 0 6.6 0 10 0 C10 0.99 10 1.98 10 3 C7.03 3 4.06 3 1 3 C0.67 2.01 0.34 1.02 0 0 Z " fill="#020202" transform="translate(182,301)"/>
<path d="M0 0 C0.66 0.33 1.32 0.66 2 1 C1.34 3.64 0.68 6.28 0 9 C-0.66 8.34 -1.32 7.68 -2 7 C-2.99 7.495 -2.99 7.495 -4 8 C-3.40138258 5.64828869 -2.73075648 3.3140622 -2 1 C-1.34 0.67 -0.68 0.34 0 0 Z " fill="#2E2E2E" transform="translate(223,279)"/>
<path d="M0 0 C0 2.83967231 -0.40267181 5.23735711 -1 8 C-1.66 7.67 -2.32 7.34 -3 7 C-3.33 8.32 -3.66 9.64 -4 11 C-4.99 10.34 -5.98 9.68 -7 9 C-7 6 -7 6 -5.46875 4.39453125 C-4.49421875 3.61142578 -4.49421875 3.61142578 -3.5 2.8125 C-2.8503125 2.28269531 -2.200625 1.75289062 -1.53125 1.20703125 C-1.0259375 0.80871094 -0.520625 0.41039062 0 0 Z " fill="#D6E9FA" transform="translate(275,207)"/>
<path d="M0 0 C0.33 0.99 0.66 1.98 1 3 C-0.65 4.32 -2.3 5.64 -4 7 C-4.99 6.34 -5.98 5.68 -7 5 C-4.63707344 2.47411298 -3.33537489 1.11179163 0 0 Z " fill="#E0F4FD" transform="translate(200,204)"/>
<path d="M0 0 C0.99 0.33 1.98 0.66 3 1 C1.40112446 2.48488441 -0.20428905 3.96273145 -1.8125 5.4375 C-2.70582031 6.26121094 -3.59914062 7.08492187 -4.51953125 7.93359375 C-7 10 -7 10 -10 11 C-8.85455923 7.56367769 -7.7288492 6.66528415 -5 4.375 C-4.278125 3.76398438 -3.55625 3.15296875 -2.8125 2.5234375 C-2.214375 2.02070313 -1.61625 1.51796875 -1 1 C-0.67 0.67 -0.34 0.34 0 0 Z " fill="#496993" transform="translate(202,205)"/>
<path d="M0 0 C0.87011719 0.10828125 0.87011719 0.10828125 1.7578125 0.21875 C6.20087574 0.7466387 10.51631578 1.11496626 15 1 C10.59360646 3.20319677 8.02549129 4.10924981 3 4 C3 3.34 3 2.68 3 2 C2.01 1.67 1.02 1.34 0 1 C0 0.67 0 0.34 0 0 Z " fill="#CEE5F8" transform="translate(247,195)"/>
<path d="M0 0 C0.33 0.66 0.66 1.32 1 2 C2.65 2 4.3 2 6 2 C3.22719294 5.08089673 0.93673644 6.68775452 -3 8 C-1.125 2.25 -1.125 2.25 0 0 Z " fill="#626164" transform="translate(234,160)"/>
<path d="M0 0 C0.99 0.495 0.99 0.495 2 1 C2 1.66 2 2.32 2 3 C2.99 3.33 3.98 3.66 5 4 C5 5.98 5 7.96 5 10 C4.01 10.495 4.01 10.495 3 11 C2.49632243 9.54293274 1.99717444 8.08429904 1.5 6.625 C1.2215625 5.81289063 0.943125 5.00078125 0.65625 4.1640625 C0 2 0 2 0 0 Z " fill="#0F0F0F" transform="translate(228,272)"/>
<path d="M0 0 C1.7074998 1.28062485 3.37373596 2.61767557 5 4 C5 4.66 5 5.32 5 6 C2.125 5.6875 2.125 5.6875 -1 5 C-1.66 4.01 -2.32 3.02 -3 2 C-2.01 1.34 -1.02 0.68 0 0 Z " fill="#606060" transform="translate(345,218)"/>
<path d="M0 0 C0.66 0.33 1.32 0.66 2 1 C2 3.64 2 6.28 2 9 C-0.0625 7.25 -0.0625 7.25 -2 5 C-1.80984746 2.78155374 -1.58477845 1.58477845 0 0 Z " fill="#0D0D0D" transform="translate(373,295)"/>
<path d="M0 0 C0.99 0.33 1.98 0.66 3 1 C2.39816251 3.02045442 1.72693904 5.02111039 1 7 C0.01 7.495 0.01 7.495 -1 8 C-1.66 6.68 -2.32 5.36 -3 4 C-2.01 2.68 -1.02 1.36 0 0 Z " fill="#1A1A1A" transform="translate(126,272)"/>
<path d="M0 0 C1.65 0 3.3 0 5 0 C5 1.65 5 3.3 5 5 C3.35 5 1.7 5 0 5 C0 3.35 0 1.7 0 0 Z " fill="#403F3E" transform="translate(220,208)"/>
<path d="M0 0 C3.60571107 0.59283087 5.54429438 2.02741777 8.25 4.4375 C8.95640625 5.05496094 9.6628125 5.67242187 10.390625 6.30859375 C12 8 12 8 12 10 C11.01 10 10.02 10 9 10 C7.72537675 8.56196351 6.45716576 7.11529986 5.2734375 5.6015625 C3.66341486 3.5766874 1.86161142 1.79266285 0 0 Z " fill="#6581A1" transform="translate(237,209)"/>
<path d="M0 0 C1.65 0 3.3 0 5 0 C5 1.65 5 3.3 5 5 C3.35 5 1.7 5 0 5 C0 3.35 0 1.7 0 0 Z " fill="#414141" transform="translate(212,208)"/>
<path d="M0 0 C0.66 0.33 1.32 0.66 2 1 C2.40729228 3.32156597 2.74438677 5.6568787 3 8 C2.34 8 1.68 8 1 8 C1 7.34 1 6.68 1 6 C-0.65 5.67 -2.3 5.34 -4 5 C-2.68 3.35 -1.36 1.7 0 0 Z " fill="#545454" transform="translate(206,166)"/>
<path d="M0 0 C1.15224028 0.92961422 2.29659176 1.8690125 3.4375 2.8125 C4.07558594 3.33457031 4.71367187 3.85664063 5.37109375 4.39453125 C7 6 7 6 8 9 C4.63704165 7.55873214 2.37072898 5.79407345 0 3 C0 2.01 0 1.02 0 0 Z " fill="#134E9E" transform="translate(230,180)"/>
<path d="M0 0 C0 0.66 0 1.32 0 2 C0.66 2 1.32 2 2 2 C1.67 3.65 1.34 5.3 1 7 C-0.98 5.35 -2.96 3.7 -5 2 C-2 0 -2 0 0 0 Z " fill="#5C5757" transform="translate(317,201)"/>
<path d="M0 0 C3.7952131 1.49097658 5.61042731 3.75700849 8 7 C5.07471973 6.37315423 2.58774327 5.51695295 0 4 C-0.33 3.34 -0.66 2.68 -1 2 C-0.67 1.34 -0.34 0.68 0 0 Z " fill="#1D4E94" transform="translate(218,191)"/>
<path d="M0 0 C4.875 1.75 4.875 1.75 6 4 C5.278125 3.7525 4.55625 3.505 3.8125 3.25 C0.8205652 2.68262931 0.8205652 2.68262931 -1.8125 4.9375 C-2.534375 5.618125 -3.25625 6.29875 -4 7 C-4.66 6.67 -5.32 6.34 -6 6 C-4.02 4.02 -2.04 2.04 0 0 Z " fill="#636363" transform="translate(190,166)"/>
<path d="M0 0 C0 2.83967231 -0.40267181 5.23735711 -1 8 C-0.34 8.33 0.32 8.66 1 9 C0.34 9 -0.32 9 -1 9 C-1.33 9.66 -1.66 10.32 -2 11 C-2.83759564 7.64961743 -3.24052591 5.2704774 -2 2 C-1.34 1.34 -0.68 0.68 0 0 Z " fill="#1550A4" transform="translate(202,184)"/>
<path d="M0 0 C1.65 0 3.3 0 5 0 C5 1.32 5 2.64 5 4 C3.35 4 1.7 4 0 4 C0 2.68 0 1.36 0 0 Z " fill="#565557" transform="translate(292,210)"/>
<path d="M0 0 C1.65 0 3.3 0 5 0 C4.67 1.32 4.34 2.64 4 4 C2.68 4 1.36 4 0 4 C0 2.68 0 1.36 0 0 Z " fill="#4D514E" transform="translate(292,216)"/>
<path d="M0 0 C1.32 0 2.64 0 4 0 C2.60667426 3.36720387 1.0210714 4.9859524 -2 7 C-2 6.01 -2 5.02 -2 4 C-1.34 4 -0.68 4 0 4 C0 2.68 0 1.36 0 0 Z " fill="#164D9F" transform="translate(183,213)"/>
<path d="M0 0 C0.33 0.99 0.66 1.98 1 3 C0.01 3.33 -0.98 3.66 -2 4 C-2.33 4.99 -2.66 5.98 -3 7 C-3.66 5.68 -4.32 4.36 -5 3 C-2.25 0 -2.25 0 0 0 Z " fill="#1C59AB" transform="translate(178,208)"/>
<path d="M0 0 C0.99 0.33 1.98 0.66 3 1 C-0.96 4.465 -0.96 4.465 -5 8 C-5.66 7.67 -6.32 7.34 -7 7 C-4.69 4.69 -2.38 2.38 0 0 Z " fill="#98A5BE" transform="translate(283,204)"/>
<path d="M0 0 C0.33 0 0.66 0 1 0 C1 2.31 1 4.62 1 7 C0.01 7.495 0.01 7.495 -1 8 C-1.625 5.125 -1.625 5.125 -2 2 C-1.34 1.34 -0.68 0.68 0 0 Z " fill="#040404" transform="translate(123,282)"/>
<path d="M0 0 C1.875 0.25 1.875 0.25 4 1 C5.25 3.0625 5.25 3.0625 6 5 C4.125 4.75 4.125 4.75 2 4 C0.75 1.9375 0.75 1.9375 0 0 Z " fill="#E4F0F9" transform="translate(321,213)"/>
<path d="M0 0 C2.375 -0.1875 2.375 -0.1875 5 0 C5.66 0.99 6.32 1.98 7 3 C6.34 3.66 5.68 4.32 5 5 C3.35 3.35 1.7 1.7 0 0 Z " fill="#575658" transform="translate(276,179)"/>
<path d="M0 0 C1.32 0.66 2.64 1.32 4 2 C3.67 2.99 3.34 3.98 3 5 C1.35 4.67 -0.3 4.34 -2 4 C-2 3.34 -2 2.68 -2 2 C-1.34 2 -0.68 2 0 2 C0 1.34 0 0.68 0 0 Z " fill="#515151" transform="translate(239,145)"/>
<path d="M0 0 C-0.33 1.32 -0.66 2.64 -1 4 C-1.66 4 -2.32 4 -3 4 C-3 3.01 -3 2.02 -3 1 C-5.64 1 -8.28 1 -11 1 C-11 0.67 -11 0.34 -11 0 C-3.375 -1.125 -3.375 -1.125 0 0 Z " fill="#535353" transform="translate(195,300)"/>
<path d="M0 0 C0.33 0.66 0.66 1.32 1 2 C1.99 2 2.98 2 4 2 C4 2.99 4 3.98 4 5 C2.35 5 0.7 5 -1 5 C-0.67 3.35 -0.34 1.7 0 0 Z " fill="#464645" transform="translate(221,217)"/>
<path d="M0 0 C2.97 0.495 2.97 0.495 6 1 C6 2.65 6 4.3 6 6 C1.125 3.375 1.125 3.375 0 0 Z " fill="#D8EAF7" transform="translate(239,187)"/>
<path d="M0 0 C0.66 0.66 1.32 1.32 2 2 C1.625 4.125 1.625 4.125 1 6 C-0.65 4.35 -2.3 2.7 -4 1 C-2.68 1.33 -1.36 1.66 0 2 C0 1.34 0 0.68 0 0 Z " fill="#1955A8" transform="translate(225,186)"/>
</svg>
